<svg width="1019" height="607" viewBox="0 0 1019 607" fill="none" xmlns="http://www.w3.org/2000/svg">
<mask id="mask0_424_4535" style="mask-type:alpha" maskUnits="userSpaceOnUse" x="0" y="0" width="1019" height="607">
<rect width="1019" height="607" fill="#D9D9D9"/>
</mask>
<g mask="url(#mask0_424_4535)">
<path d="M799.964 597.749C799.964 597.749 755.491 653.763 739.359 645.554C729.106 640.348 789.994 587.124 749.92 576.774C740.816 574.38 723.226 636.85 714.123 636.607C691.043 635.913 736.942 570.346 720.666 561.29C703.027 551.457 687.894 642.902 673.34 637.735C645.094 627.69 727.434 500.48 704.707 491.813C681.98 483.147 675.664 575.786 659.821 572.086C648.136 569.319 666.798 502.621 657.766 501.81C637.982 499.939 627.652 592.327 627.741 617.569C628.072 681.805 597.147 739.201 578.27 700.817C559.393 662.434 667.479 449.615 633.134 431.657C612.269 420.779 554.578 748.589 506.967 721.845C463.731 697.471 638.932 420.999 599.355 401.704C566.516 385.701 491.907 708.747 456.192 679.423C427.65 655.936 593.312 369.728 576.312 349.979C553.716 323.796 443.187 632.129 423.397 621.324C364.458 588.97 627.563 250.197 571.224 247.335C550.438 246.312 400.146 579.081 379.931 575.162C311.615 561.882 577.83 264.835 501.996 262.129C481.21 261.436 431.22 425.176 409.418 406.8C393.425 393.319 419.494 362.02 403.936 356.542C368.879 344.105 376.384 418.644 394.465 447.07" stroke="#0071D4" stroke-width="16" stroke-miterlimit="10"/>
<path d="M799.964 597.749C799.964 597.749 755.491 653.763 739.359 645.555C729.106 640.348 789.994 587.124 749.92 576.774C740.816 574.38 723.226 636.85 714.123 636.607C691.043 635.913 736.943 570.346 720.666 561.29C703.027 551.457 687.894 642.902 673.34 637.735C645.094 627.691 727.434 500.48 704.707 491.813C681.98 483.147 675.664 575.786 659.821 572.086C648.136 569.319 666.798 502.621 657.766 501.81C637.983 499.939 627.652 592.327 627.741 617.569C628.072 681.805 597.147 739.201 578.27 700.817C559.393 662.434 667.479 449.615 633.134 431.657C612.269 420.779 554.578 748.589 506.967 721.845C463.731 697.471 638.932 420.999 599.355 401.704C566.516 385.701 491.907 708.747 456.192 679.423C427.65 655.936 593.312 369.728 576.312 349.979C553.716 323.796 443.187 632.129 423.397 621.324C364.458 588.97 627.563 250.197 571.225 247.335C550.438 246.312 400.146 579.081 379.931 575.162C311.615 561.882 577.83 264.835 501.996 262.129C481.21 261.436 431.22 425.176 409.418 406.8C393.425 393.319 419.494 362.02 403.936 356.542C368.879 344.105 376.384 418.644 394.465 447.07" stroke="#AFE26C" stroke-width="12" stroke-miterlimit="10"/>
<path d="M892.063 638.938C908.849 651.816 940.876 676.339 953.92 650.902C964.94 629.326 820.903 587.965 857.608 592.828C1039.96 616.765 1072.71 577.897 903.845 566.964C888.896 565.97 871.848 564.173 857.059 562.053C792.46 552.646 780.719 518.106 803.878 518.453C819.91 518.749 1003.03 564.99 1032.78 530.449C1055.56 504.043 994.861 512.791 897.738 503.149C843.801 497.776 754.029 499.889 768.513 464.319C777.066 443.37 1065.94 521.034 1041.19 456.797C1033.39 436.66 867.013 468.885 866.5 430.355C866.087 397.472 1018.01 438.722 1023.05 413.056C1031.18 371.966 874.364 412.515 886.499 379.627C896.163 345.077 1032.25 392.178 1022.64 349.541C1014.92 315.035 756.329 375.735 765.096 325.567C767.934 309.052 993.755 326.018 1002.84 309.947C1020.54 278.325 822.896 304.899 821.83 284.115C820.693 262.098 856.405 265.871 929.619 266.589C965.004 266.894 1017.27 266.692 997.386 247.346C977.43 227.911 854.403 252.254 857.842 236.704C862.564 215.006 1015.81 206.573 970.395 194.298C924.914 181.934 897.849 192.919 878.064 197.682C878.064 197.682 794.239 230.674 804.51 217.838C825.488 191.397 933.036 166.9 927.971 139.631C924.672 121.868 794.519 198.684 794.956 180.598C795.151 171.144 894.744 131.067 889.076 118.435C885.027 109.411 794.578 157.276 792.461 143.891C791.367 136.582 849.074 114.843 841.532 115.4C772.57 120.542 841.206 96.3317 838.455 109.343" stroke="#0041E9" stroke-width="16" stroke-miterlimit="10"/>
<path d="M892.063 638.938C908.849 651.816 940.876 676.339 953.92 650.902C964.94 629.326 820.903 587.965 857.608 592.828C1039.96 616.765 1072.71 577.897 903.845 566.964C888.896 565.97 871.848 564.173 857.059 562.053C792.46 552.646 780.719 518.106 803.878 518.453C819.909 518.749 1003.03 564.99 1032.78 530.449C1055.56 504.043 994.861 512.791 897.738 503.149C843.801 497.776 754.029 499.889 768.513 464.319C777.066 443.37 1065.94 521.034 1041.19 456.797C1033.39 436.66 867.013 468.885 866.5 430.355C866.087 397.472 1018.01 438.722 1023.05 413.056C1031.18 371.966 874.364 412.515 886.499 379.627C896.163 345.077 1032.25 392.178 1022.64 349.541C1014.92 315.035 756.329 375.736 765.096 325.567C767.934 309.052 993.755 326.018 1002.84 309.948C1020.54 278.325 822.896 304.899 821.83 284.115C820.693 262.098 856.405 265.871 929.619 266.589C965.003 266.894 1017.27 266.692 997.386 247.346C977.43 227.911 854.403 252.254 857.842 236.704C862.564 215.006 1015.81 206.573 970.395 194.298C924.914 181.934 897.849 192.919 878.064 197.682C878.064 197.682 794.239 230.674 804.51 217.838C825.488 191.397 933.036 166.9 927.971 139.631C924.672 121.868 794.519 198.684 794.956 180.598C795.151 171.144 894.744 131.067 889.076 118.435C885.027 109.411 794.578 157.276 792.461 143.891C791.367 136.582 849.074 114.843 841.532 115.4C772.57 120.542 841.206 96.3317 838.455 109.343" stroke="#4DD0C3" stroke-width="11" stroke-miterlimit="10"/>
<path d="M977.503 603.366C977.503 603.366 986.387 636.195 982.84 641.967C978.105 649.471 957.947 635.082 944.291 643.4C936.689 648.089 965.646 667.24 960.406 674.681C953.148 685.265 918.671 658.369 910.574 668.377C904.115 676.397 934.051 694.52 927.405 702.412C919.451 711.811 893.446 684.358 880.801 696.2C871.503 704.96 911.932 735.372 888.16 747.646C875.505 754.104 850.828 672.533 837.527 677.134C820.009 683.087 873.211 782.239 855.049 780.535C822.165 777.507 807.368 677.53 803.466 657.03C799.225 635.024 861.179 625.45 862.429 607.634C864.75 573.86 791.228 634.491 778.606 621.309C772.295 614.718 779.958 575.553 773.938 568.737C767.332 561.377 749.333 560.634 743.313 568.813C714.702 607.336 816.811 710.742 795.206 762.84C790.186 774.958 781.888 778.463 771.312 771.493C753.797 760.048 753.278 723.619 743.804 683.454C739.379 664.717 726.143 611.645 711.244 612.179C689.906 613.107 736.065 726.528 723.354 744.265C705.441 769.186 698.139 682.271 688.044 681.997C656.206 681.242 702.177 742.757 672.769 753.854C661.247 758.26 659.419 714.143 648.102 716.851C622.245 723.169 652.315 753.691 636.466 764.608C620.616 775.525 619.861 739.641 612.645 741.766C587.259 749.396 599.222 781.932 606.309 786.792" stroke="#0089F4" stroke-width="15" stroke-miterlimit="10"/>
<path d="M977.503 603.366C977.503 603.366 986.387 636.195 982.84 641.967C978.105 649.471 957.947 635.082 944.291 643.4C936.689 648.089 965.646 667.24 960.406 674.681C953.148 685.265 918.671 658.369 910.574 668.377C904.115 676.397 934.051 694.52 927.405 702.412C919.451 711.811 893.446 684.358 880.801 696.2C871.503 704.96 911.932 735.372 888.16 747.646C875.505 754.104 850.828 672.533 837.527 677.134C820.009 683.087 873.211 782.239 855.049 780.535C822.165 777.507 807.368 677.53 803.466 657.03C799.225 635.024 861.179 625.45 862.429 607.634C864.75 573.86 791.228 634.491 778.606 621.309C772.295 614.718 779.958 575.553 773.938 568.737C767.332 561.377 749.333 560.634 743.313 568.813C714.702 607.336 816.811 710.742 795.206 762.84C790.186 774.958 781.888 778.463 771.312 771.493C753.797 760.048 753.278 723.619 743.804 683.454C739.379 664.717 726.143 611.645 711.244 612.179C689.906 613.107 736.065 726.528 723.354 744.265C705.441 769.186 698.139 682.271 688.044 681.997C656.206 681.242 702.177 742.757 672.769 753.854C661.247 758.26 659.419 714.143 648.102 716.851C622.245 723.169 652.315 753.691 636.466 764.608C620.616 775.525 619.861 739.641 612.645 741.766C587.259 749.396 599.222 781.932 606.309 786.792" stroke="#EEEA81" stroke-width="10" stroke-miterlimit="10"/>
<path d="M946.688 625.747C946.688 625.747 855.941 622.637 829.43 605.148C825.163 602.29 843.994 584.688 840.03 581.319C834.37 576.285 798.136 599.331 792.25 594.72C786.363 590.11 823.96 560.937 819.257 555.506C810.711 545.719 749.853 591.519 749.703 569.059C749.529 553.602 793.491 540.241 799.195 517.834C804.9 495.428 721.598 556.084 710.393 539.249C698.146 520.863 770.273 502.885 789.767 485.56C803.855 472.953 781.642 453.353 768.593 459.859C744.798 471.641 677.235 516.473 663.262 486.246C652.518 463.108 855.977 405.331 882.136 384.254C905.315 365.679 879.528 325.258 854.412 344.14C835.829 358.058 568.896 516.298 587.103 431.003C591.976 408.17 781.669 379.993 782.18 346.411C782.7 311.119 692.873 375.028 684.487 355.704C675.208 334.492 788.086 290.771 780.356 269.688C773.555 251.305 657.872 335.78 637.832 346.061C609.521 360.54 555.075 389.091 553.687 352.882C552.145 313.102 610.996 343.74 723.747 261.03C762.273 232.684 824.294 250.06 815.679 223.506C809.878 205.7 769.597 223.428 764.115 213.089C757.649 200.623 768.175 209.205 777.016 182.25C780.114 172.983 763.134 127.591 743.122 140.395C734.342 146.014 746.635 169.282 743.64 184.729C734.081 234.779 698.519 241.247 676.255 250.798C660.134 257.695 578.063 295.87 571.666 285.028C563.263 270.997 588.353 247.721 604.845 243.809C668.962 228.543 710.791 226.087 720.604 187.662C726.647 163.683 685.179 111.97 660.518 149.055C653.877 159.075 697.183 174.013 688.174 185.674C679.165 197.335 615.833 208.146 615.833 208.146" stroke="#0072FF" stroke-width="18" stroke-miterlimit="10"/>
<path d="M946.688 625.747C946.688 625.747 855.941 622.637 829.43 605.148C825.163 602.29 843.994 584.688 840.03 581.319C834.37 576.285 798.136 599.331 792.25 594.72C786.363 590.11 823.96 560.937 819.257 555.506C810.711 545.719 749.853 591.519 749.703 569.059C749.529 553.602 793.491 540.241 799.195 517.834C804.9 495.428 721.598 556.084 710.393 539.249C698.146 520.863 770.273 502.885 789.767 485.56C803.855 472.953 781.642 453.353 768.593 459.859C744.798 471.641 677.235 516.473 663.262 486.246C652.518 463.108 855.977 405.331 882.136 384.254C905.315 365.679 879.528 325.258 854.412 344.14C835.829 358.058 568.896 516.298 587.103 431.003C591.976 408.17 781.669 379.993 782.18 346.411C782.7 311.119 692.873 375.028 684.487 355.704C675.208 334.492 788.086 290.771 780.356 269.688C773.555 251.305 657.872 335.78 637.832 346.061C609.521 360.54 555.075 389.091 553.687 352.882C552.145 313.102 610.996 343.74 723.747 261.03C762.273 232.684 824.294 250.06 815.679 223.506C809.878 205.7 769.597 223.428 764.115 213.089C757.649 200.623 768.175 209.205 777.016 182.25C780.114 172.983 763.134 127.591 743.122 140.395C734.342 146.014 746.635 169.282 743.64 184.729C734.081 234.779 698.519 241.247 676.255 250.798C660.134 257.695 578.063 295.87 571.666 285.028C563.263 270.997 588.353 247.721 604.845 243.809C668.962 228.543 710.791 226.087 720.604 187.662C726.647 163.683 685.179 111.97 660.518 149.055C653.877 159.075 697.183 174.013 688.174 185.674C679.165 197.335 615.833 208.146 615.833 208.146" stroke="#F1AAB5" stroke-width="13" stroke-miterlimit="10"/>
</g>
</svg>
