<svg width="56" height="48" viewBox="0 0 56 48" fill="none" xmlns="http://www.w3.org/2000/svg">
<path d="M55.4227 0V8.41237C52.7835 8.85223 50.6392 9.95189 48.9897 11.7113C47.3402 13.4708 46.0756 15.6701 45.1959 18.3093C44.4261 20.9485 44.0412 23.8076 44.0412 26.8866H54.268V48H33.3196V28.701C33.3196 22.2131 34.3643 17.0447 36.4536 13.1959C38.5429 9.23712 41.2371 6.21306 44.5361 4.12372C47.945 2.03437 51.5739 0.659798 55.4227 0ZM22.1031 0V8.41237C19.4639 8.85223 17.3196 9.95189 15.6701 11.7113C14.0206 13.4708 12.756 15.6701 11.8763 18.3093C11.1065 20.9485 10.7216 23.8076 10.7216 26.8866H20.9485V48H0V28.701C0 22.2131 1.04467 17.0447 3.13402 13.1959C5.22337 9.23712 7.91752 6.21306 11.2165 4.12372C14.6254 2.03437 18.2543 0.659798 22.1031 0Z" fill="white"/>
</svg>
