<svg width="1440" height="165" viewBox="0 0 1440 165" fill="none" xmlns="http://www.w3.org/2000/svg">
<path d="M68.1684 8.30691C21.8775 8.30691 11.9461 43.5915 0 49.1194V164.5H358.511H717.022H1440V23C1440 -3.1824 1382.04 49.1194 1382.04 49.1194C1382.04 49.1194 1383.27 8.30688 1337 8.30688C1290.72 8.30688 1280.04 66.1097 1280.04 66.1097C1280.04 66.1097 1268.54 23.1149 1220.04 23.1149C1178.28 23.1149 1161.53 66.1097 1161.53 66.1097C1161.53 66.1097 1146.53 8.30693 1063.53 8.30691C980.529 8.30689 953.529 66.1097 953.529 66.1097C953.529 66.1097 940.028 23.1149 878.526 23.1149C817.025 23.1149 791.024 75.9105 791.024 75.9105C791.024 75.9105 797.002 23.1149 737.5 8.30688C654.965 -12.2333 623.019 66.1097 623.019 66.1097C623.019 66.1097 618.5 23 553.5 23C488.5 23 477.677 66.1097 477.677 66.1097C477.677 66.1097 460.785 33.8288 410.512 33.2851C360.239 32.7414 345.669 66.1097 345.669 66.1097C345.669 66.1097 320.823 2.41789 249.007 0C183.692 0.394262 143.303 49.1194 143.303 49.1194C143.303 49.1194 114.459 8.30691 68.1684 8.30691Z" fill="white"/>
</svg>
