<svg width="1438" height="133" viewBox="0 0 1438 133" fill="none" xmlns="http://www.w3.org/2000/svg">
<path d="M-1.67614e-06 65.4888L-3.23729e-05 10.0006C-7.68178e-05 -1.96529 57.0484 66.8402 57.0484 66.8402C57.0484 66.8402 104.719 0.207525 180.937 0.281242C264.71 4.28392 292.994 92.1162 292.994 92.1162C292.994 92.1162 310.366 46.3608 369.022 47.5827C427.678 48.8045 447.029 93.3611 447.029 93.3611C447.029 93.3611 470.73 34.4163 528.791 34.8855C586.852 35.3548 616.623 94.7317 616.623 94.7317C616.623 94.7317 647.795 -12.7717 743.874 16.2564C813.14 37.1836 812.553 109.795 812.553 109.795C812.553 109.795 843.48 37.4288 915.244 38.0088C987.008 38.5889 1002.28 97.8486 1002.28 97.8486C1002.28 97.8486 1034.43 18.6047 1131.29 19.3875C1228.14 20.1703 1245 99.8103 1245 99.8103C1245 99.8103 1263.78 19.3875 1312.5 19.3875C1356.75 19.3875 1369.71 44.3047 1372.5 66.4002C1386.16 26.2288 1438 13.7321 1438 47.5827C1438 84.7766 1438 80.345 1438 78.8559L1438 92.9999L1438 132.5L722.5 132.5L305.5 131L0.000120368 131L-1.67614e-06 65.4888Z" fill="#4DD0C3"/>
</svg>
