<?xml version="1.0" standalone="no"?><svg xmlns="http://www.w3.org/2000/svg" viewBox="0 0 1440 320"><path fill="#0099ff" fill-opacity="1" d="M0,0L26.7,5.3C53.3,11,107,21,160,48C213.3,75,267,117,320,122.7C373.3,128,427,96,480,122.7C533.3,149,587,235,640,256C693.3,277,747,235,800,197.3C853.3,160,907,128,960,138.7C1013.3,149,1067,203,1120,240C1173.3,277,1227,299,1280,298.7C1333.3,299,1387,277,1413,266.7L1440,256L1440,320L1413.3,320C1386.7,320,1333,320,1280,320C1226.7,320,1173,320,1120,320C1066.7,320,1013,320,960,320C906.7,320,853,320,800,320C746.7,320,693,320,640,320C586.7,320,533,320,480,320C426.7,320,373,320,320,320C266.7,320,213,320,160,320C106.7,320,53,320,27,320L0,320Z"></path></svg>