<svg id="visual" viewBox="0 0 960 540" width="960" height="540" xmlns="http://www.w3.org/2000/svg" xmlns:xlink="http://www.w3.org/1999/xlink" version="1.1"><path d="M0 362L32 362.8C64 363.7 128 365.3 192 365C256 364.7 320 362.3 384 359.2C448 356 512 352 576 355C640 358 704 368 768 368.3C832 368.7 896 359.3 928 354.7L960 350L960 541L928 541C896 541 832 541 768 541C704 541 640 541 576 541C512 541 448 541 384 541C320 541 256 541 192 541C128 541 64 541 32 541L0 541Z" fill="#afe26c"></path><path d="M0 405L32 401.7C64 398.3 128 391.7 192 392.3C256 393 320 401 384 405.3C448 409.7 512 410.3 576 409.2C640 408 704 405 768 403.3C832 401.7 896 401.3 928 401.2L960 401L960 541L928 541C896 541 832 541 768 541C704 541 640 541 576 541C512 541 448 541 384 541C320 541 256 541 192 541C128 541 64 541 32 541L0 541Z" fill="#8ce185"></path><path d="M0 423L32 420.8C64 418.7 128 414.3 192 414.2C256 414 320 418 384 423.7C448 429.3 512 436.7 576 435C640 433.3 704 422.7 768 419.3C832 416 896 420 928 422L960 424L960 541L928 541C896 541 832 541 768 541C704 541 640 541 576 541C512 541 448 541 384 541C320 541 256 541 192 541C128 541 64 541 32 541L0 541Z" fill="#6ddd9e"></path><path d="M0 474L32 474.2C64 474.3 128 474.7 192 472.5C256 470.3 320 465.7 384 463.3C448 461 512 461 576 458.8C640 456.7 704 452.3 768 454.5C832 456.7 896 465.3 928 469.7L960 474L960 541L928 541C896 541 832 541 768 541C704 541 640 541 576 541C512 541 448 541 384 541C320 541 256 541 192 541C128 541 64 541 32 541L0 541Z" fill="#56d7b3"></path><path d="M0 492L32 491.3C64 490.7 128 489.3 192 488.2C256 487 320 486 384 488.2C448 490.3 512 495.7 576 498.5C640 501.3 704 501.7 768 499C832 496.3 896 490.7 928 487.8L960 485L960 541L928 541C896 541 832 541 768 541C704 541 640 541 576 541C512 541 448 541 384 541C320 541 256 541 192 541C128 541 64 541 32 541L0 541Z" fill="#4dd0c3"></path></svg>