<svg width="1440" height="1735" viewBox="0 0 1440 1735" fill="none" xmlns="http://www.w3.org/2000/svg">
<path fill-rule="evenodd" clip-rule="evenodd" d="M1323.01 1276.92C1322.46 1277.4 1321.68 1277.51 1321.02 1277.21C1318.6 1276.09 1315.86 1275.89 1313.3 1276.62C1310.74 1277.36 1308.53 1278.99 1307.07 1281.21C1305.61 1283.44 1305 1286.12 1305.35 1288.76C1305.7 1291.4 1306.98 1293.83 1308.97 1295.6C1309.51 1296.09 1309.72 1296.85 1309.5 1297.54C1309.28 1298.24 1308.67 1298.74 1307.94 1298.82C1304.44 1299.22 1300.91 1298.62 1297.74 1297.08C1294.58 1295.54 1291.91 1293.13 1290.07 1290.13C1288.22 1287.13 1287.27 1283.67 1287.32 1280.15C1287.37 1276.63 1288.42 1273.2 1290.35 1270.26C1292.28 1267.31 1295 1264.98 1298.21 1263.53C1301.42 1262.08 1304.97 1261.57 1308.46 1262.06C1311.94 1262.56 1315.21 1264.04 1317.89 1266.33C1320.56 1268.61 1322.53 1271.61 1323.57 1274.98C1323.78 1275.68 1323.56 1276.44 1323.01 1276.92ZM1318.47 1272.63C1317.66 1271.33 1316.66 1270.15 1315.48 1269.14C1313.34 1267.31 1310.72 1266.13 1307.94 1265.73C1305.15 1265.34 1302.3 1265.74 1299.74 1266.9C1297.17 1268.06 1294.99 1269.93 1293.45 1272.29C1291.9 1274.64 1291.06 1277.39 1291.02 1280.2C1290.98 1283.02 1291.75 1285.79 1293.22 1288.19C1294.7 1290.58 1296.83 1292.51 1299.36 1293.74C1300.75 1294.42 1302.24 1294.87 1303.75 1295.09C1302.66 1293.32 1301.95 1291.33 1301.67 1289.24C1301.21 1285.72 1302.03 1282.15 1303.97 1279.18C1305.92 1276.21 1308.87 1274.04 1312.28 1273.06C1314.3 1272.48 1316.41 1272.34 1318.47 1272.63Z" fill="#EEEA81" fill-opacity="0.5"/>
<path fill-rule="evenodd" clip-rule="evenodd" d="M1186.32 966.714C1184.02 955.692 1173.23 948.619 1162.2 950.914C1151.18 953.21 1144.11 964.006 1146.41 975.027C1148.7 986.049 1159.5 993.123 1170.52 990.827C1181.54 988.531 1188.61 977.735 1186.32 966.714ZM1181.62 964.118C1182.08 965.174 1182.44 966.294 1182.69 967.47C1183.52 971.456 1182.85 975.406 1181.07 978.736C1178.17 976.904 1175.82 974.596 1173.83 971.705C1176.4 969.51 1178.88 967.056 1181.62 964.118ZM1179.65 960.786C1176.64 956.82 1171.93 954.339 1166.85 954.196C1168.27 959.915 1169.86 964.62 1171.9 968.48C1174.39 966.311 1176.84 963.837 1179.65 960.786ZM1163.11 954.513C1163.06 954.523 1163.01 954.533 1162.96 954.543C1158.95 955.378 1155.58 957.59 1153.23 960.582C1159.74 963.639 1164.04 967.295 1166.73 971.692L1166.73 971.695C1166.84 971.886 1166.96 972.08 1167.07 972.278C1167.4 972.04 1167.74 971.801 1168.07 971.559C1168.37 971.333 1168.68 971.104 1168.98 970.873C1166.49 966.359 1164.67 960.925 1163.11 954.513ZM1151.27 963.758C1149.78 966.922 1149.26 970.582 1150.03 974.272C1150.5 976.535 1151.41 978.595 1152.66 980.381C1157.23 978.192 1160.85 976.275 1163.97 974.331C1163.84 974.087 1163.7 973.85 1163.56 973.621C1161.31 969.93 1157.54 966.639 1151.27 963.758ZM1155.2 983.268C1158.3 986.049 1162.4 987.645 1166.72 987.548C1166.8 983.828 1166.31 980.534 1165.42 977.788C1162.49 979.582 1159.18 981.34 1155.2 983.268ZM1170.43 987.045C1173.87 986.183 1176.8 984.3 1178.97 981.792C1175.72 979.717 1173.11 977.141 1170.94 974.037C1170.72 974.207 1170.49 974.375 1170.26 974.542C1169.73 974.936 1169.19 975.324 1168.63 975.707C1169.81 978.952 1170.46 982.796 1170.43 987.045Z" fill="#FBA86B" fill-opacity="0.25"/>
<path fill-rule="evenodd" clip-rule="evenodd" d="M1037.17 301.925C1039.1 297.91 1042.81 294.807 1047.51 293.828C1055.53 292.159 1063.38 297.303 1065.05 305.319C1066.72 313.334 1061.57 321.186 1053.56 322.855C1048.86 323.834 1044.22 322.472 1040.84 319.563L1025.82 324.83C1025.15 325.065 1024.4 324.896 1023.9 324.393C1023.4 323.89 1023.23 323.144 1023.46 322.472L1026.65 313.317L1020.07 306.197C1019.59 305.674 1019.45 304.921 1019.71 304.259C1019.97 303.597 1020.59 303.143 1021.3 303.091L1037.17 301.925ZM1048.27 297.457C1054.28 296.204 1060.17 300.063 1061.42 306.075C1062.67 312.086 1058.81 317.975 1052.8 319.227C1049.02 320.014 1045.3 318.784 1042.74 316.27C1042.66 316.178 1042.58 316.094 1042.49 316.019C1041.1 314.566 1040.09 312.721 1039.65 310.609C1038.4 304.597 1042.25 298.709 1048.27 297.457ZM1038.19 316.565C1037.17 315.031 1036.42 313.28 1036.02 311.365C1035.62 309.451 1035.61 307.546 1035.94 305.732L1025.4 306.506L1030.12 311.619C1030.59 312.122 1030.74 312.84 1030.51 313.486L1028.22 320.06L1038.19 316.565Z" fill="#EEEA81" fill-opacity="0.5"/>
<path fill-rule="evenodd" clip-rule="evenodd" d="M1236.06 500.908C1232.68 501.612 1229.36 499.891 1227.9 496.929L1206 501.49C1207.17 505.068 1209.53 508.163 1212.71 510.246C1215.89 512.33 1219.67 513.254 1223.41 512.901L1222.68 509.373C1222.47 508.371 1223.11 507.39 1224.12 507.181C1225.12 506.973 1226.1 507.616 1226.31 508.618L1227.44 514.06C1227.65 515.062 1227.01 516.044 1226.01 516.252C1220.71 517.355 1215.2 516.309 1210.68 513.346C1206.16 510.384 1203 505.746 1201.89 500.453C1200.79 495.16 1201.84 489.646 1204.8 485.124C1207.76 480.602 1212.4 477.442 1217.69 476.34C1218.17 476.24 1218.67 476.335 1219.09 476.604C1219.5 476.873 1219.78 477.295 1219.88 477.776L1221.02 483.219C1221.23 484.221 1220.58 485.202 1219.58 485.411C1218.58 485.62 1217.6 484.976 1217.39 483.975L1216.65 480.447C1213.08 481.62 1209.98 483.976 1207.9 487.155C1205.82 490.335 1204.89 494.114 1205.24 497.862L1227.14 493.301C1227.3 490.003 1229.66 487.098 1233.04 486.394C1237.04 485.559 1240.97 488.131 1241.81 492.139C1242.64 496.147 1240.07 500.073 1236.06 500.908ZM1238.18 492.895C1237.76 490.891 1235.8 489.605 1233.79 490.022C1231.79 490.44 1230.5 492.403 1230.92 494.407C1231.34 496.411 1233.3 497.697 1235.3 497.279C1237.31 496.862 1238.59 494.899 1238.18 492.895Z" fill="#0077DF" fill-opacity="0.25"/>
<path fill-rule="evenodd" clip-rule="evenodd" d="M1088.41 1401.22C1088.09 1401.71 1087.58 1401.99 1087.04 1402.05C1086.89 1402.06 1086.73 1402.06 1086.58 1402.03L1047.69 1396.9C1046.94 1396.8 1046.32 1396.25 1046.14 1395.51C1045.95 1394.77 1046.24 1394 1046.85 1393.56L1061.09 1383.31L1064.8 1366.17C1064.96 1365.43 1065.55 1364.86 1066.3 1364.73C1067.05 1364.61 1067.8 1364.96 1068.19 1365.61L1088.43 1399.21C1088.51 1399.34 1088.58 1399.48 1088.63 1399.63C1088.66 1399.73 1088.69 1399.84 1088.7 1399.95C1088.76 1400.38 1088.67 1400.83 1088.41 1401.22ZM1081.09 1394.2L1067.43 1371.52L1064.83 1383.55L1081.09 1394.2ZM1062.8 1386.65L1079.06 1397.3L1052.81 1393.83L1062.8 1386.65Z" fill="#FBA86B" fill-opacity="0.25"/>
<path d="M728.136 1134.74C728.902 1135.41 728.978 1136.58 728.309 1137.34L728.3 1137.35C728.288 1137.37 728.267 1137.39 728.238 1137.43C728.179 1137.51 728.087 1137.63 727.976 1137.79C727.753 1138.11 727.458 1138.6 727.188 1139.19C726.645 1140.4 726.241 1141.99 726.609 1143.76C726.977 1145.53 727.985 1146.83 728.964 1147.72C729.45 1148.16 729.912 1148.48 730.247 1148.69C730.413 1148.8 730.545 1148.87 730.63 1148.91C730.672 1148.94 730.701 1148.95 730.717 1148.96L730.73 1148.97C731.65 1149.4 732.046 1150.5 731.613 1151.43C731.179 1152.35 730.075 1152.75 729.149 1152.32L729.935 1150.64C729.149 1152.32 729.149 1152.32 729.149 1152.32L729.146 1152.32L729.143 1152.32L729.135 1152.31L729.115 1152.3L729.058 1152.27C729.012 1152.25 728.95 1152.22 728.876 1152.18C728.727 1152.1 728.524 1151.98 728.282 1151.83C727.8 1151.53 727.155 1151.08 726.474 1150.46C725.12 1149.24 723.557 1147.28 722.981 1144.52C722.404 1141.75 723.058 1139.34 723.81 1137.67C724.187 1136.83 724.599 1136.16 724.92 1135.69C725.081 1135.46 725.222 1135.27 725.326 1135.14C725.379 1135.07 725.422 1135.02 725.455 1134.98L725.497 1134.93L725.511 1134.91L725.516 1134.91L725.519 1134.9C725.519 1134.9 725.521 1134.9 726.912 1136.13L725.521 1134.9C726.197 1134.13 727.368 1134.06 728.136 1134.74Z" fill="#EEEA81" fill-opacity="0.5"/>
<path d="M735.983 1134.24C736.985 1134.03 737.966 1134.67 738.175 1135.67L738.179 1135.69C738.387 1136.69 737.744 1137.68 736.742 1137.88C735.74 1138.09 734.759 1137.45 734.55 1136.45L734.546 1136.43C734.338 1135.43 734.981 1134.45 735.983 1134.24Z" fill="#EEEA81" fill-opacity="0.5"/>
<path d="M740.442 1146.56C740.233 1145.56 739.252 1144.91 738.25 1145.12C737.248 1145.33 736.605 1146.31 736.814 1147.31L736.817 1147.33C737.026 1148.33 738.008 1148.98 739.01 1148.77C740.011 1148.56 740.655 1147.58 740.446 1146.58L740.442 1146.56Z" fill="#EEEA81" fill-opacity="0.5"/>
<path fill-rule="evenodd" clip-rule="evenodd" d="M752.008 1138.47C749.712 1127.45 738.916 1120.38 727.895 1122.67C716.873 1124.97 709.8 1135.76 712.095 1146.78C714.391 1157.81 725.187 1164.88 736.208 1162.58C747.23 1160.29 754.303 1149.49 752.008 1138.47ZM728.651 1126.3C737.668 1124.42 746.501 1130.21 748.379 1139.23C750.258 1148.24 744.47 1157.08 735.453 1158.96C726.435 1160.83 717.602 1155.05 715.724 1146.03C713.845 1137.01 719.633 1128.18 728.651 1126.3Z" fill="#EEEA81" fill-opacity="0.5"/>
<path fill-rule="evenodd" clip-rule="evenodd" d="M916.646 667.544C916.497 666.827 915.939 666.265 915.223 666.111L898.561 662.509L897.673 658.246C897.372 656.802 896.511 655.537 895.277 654.729C894.044 653.921 892.54 653.636 891.097 653.937L878.397 656.582C876.954 656.883 875.689 657.744 874.881 658.978C874.073 660.211 873.788 661.715 874.088 663.158L879.483 689.055C879.743 690.367 880.467 691.54 881.523 692.361C882.581 693.184 883.901 693.597 885.239 693.523L902.089 692.626C902.894 692.582 903.68 692.363 904.391 691.986C905.103 691.608 905.725 691.08 906.212 690.438C906.7 689.796 907.042 689.056 907.215 688.269C907.387 687.486 907.388 686.674 907.217 685.891L905.458 677.446L910.901 676.312C912.825 675.911 914.512 674.762 915.589 673.118C916.667 671.474 917.047 669.469 916.646 667.544ZM913.076 669.438L896.985 665.96L879.228 669.659L883.117 688.33C883.204 688.768 883.445 689.161 883.798 689.435C884.151 689.71 884.591 689.847 885.037 689.823L901.887 688.925C902.155 688.91 902.417 688.838 902.654 688.712C902.891 688.586 903.098 688.41 903.261 688.196C903.423 687.982 903.537 687.735 903.595 687.473C903.653 687.211 903.653 686.939 903.595 686.676L903.591 686.656L901.452 676.388C901.243 675.386 901.886 674.404 902.888 674.196L910.145 672.684C911.107 672.484 911.951 671.909 912.489 671.087C912.817 670.587 913.015 670.021 913.076 669.438ZM894.8 662.63L878.473 666.031L877.717 662.402C877.617 661.921 877.712 661.42 877.981 661.009C878.25 660.598 878.672 660.311 879.153 660.21L891.853 657.565C892.334 657.465 892.835 657.56 893.246 657.829C893.657 658.099 893.944 658.52 894.045 659.001L894.8 662.63Z" fill="#0077DF" fill-opacity="0.25"/>
<path fill-rule="evenodd" clip-rule="evenodd" d="M443.621 262.057C444.441 261.99 445.119 261.391 445.286 260.585C445.453 259.78 445.068 258.961 444.342 258.574L418.793 244.967C418.158 244.629 417.386 244.688 416.81 245.12C416.235 245.551 415.961 246.276 416.108 246.98L419.081 261.253L406.282 262.292C405.462 262.359 404.784 262.958 404.617 263.763C404.45 264.569 404.834 265.388 405.56 265.775L431.11 279.382C431.744 279.72 432.517 279.66 433.092 279.229C433.668 278.798 433.942 278.072 433.795 277.369L430.822 263.096L443.621 262.057ZM423.137 262.552L420.543 250.098L437.021 258.874L428.43 259.572C427.9 259.615 427.414 259.883 427.096 260.309C426.777 260.734 426.657 261.276 426.766 261.797L429.36 274.251L412.881 265.475L421.473 264.777C422.003 264.734 422.488 264.466 422.807 264.04C423.125 263.615 423.246 263.073 423.137 262.552Z" fill="#EEEA81" fill-opacity="0.5"/>
<path fill-rule="evenodd" clip-rule="evenodd" d="M304.488 836.2C307.102 832.212 305.987 826.86 301.999 824.247C298.01 821.634 292.659 822.748 290.045 826.737L288.926 828.446C288.907 828.474 288.888 828.501 288.869 828.528L278.443 844.44L294.354 854.865C294.383 854.882 294.411 854.899 294.44 854.918L296.149 856.038C300.137 858.651 305.489 857.536 308.102 853.548C310.715 849.56 309.6 844.208 305.612 841.595L303.903 840.475C303.047 839.914 302.808 838.765 303.368 837.909L304.488 836.2ZM292.493 858.073C292.464 858.056 292.435 858.039 292.407 858.02L274.864 846.526C274.453 846.256 274.165 845.834 274.065 845.353C274.065 845.352 274.065 845.353 274.065 845.353C274.065 845.352 274.065 845.351 274.064 845.35C273.964 844.869 274.059 844.367 274.329 843.956L285.823 826.413C285.842 826.385 285.861 826.357 285.881 826.33L286.945 824.705C290.68 819.005 298.329 817.412 304.03 821.147C309.73 824.882 311.324 832.531 307.588 838.231L307.484 838.39L307.643 838.495C313.344 842.23 314.937 849.879 311.202 855.579C307.467 861.28 299.818 862.873 294.117 859.138L292.493 858.073Z" fill="#F1AAB5" fill-opacity="0.25"/>
<path fill-rule="evenodd" clip-rule="evenodd" d="M958.752 640.99C958.838 641.409 958.67 641.839 958.323 642.089C957.058 643.001 956.161 644.337 955.797 645.854C955.433 647.371 955.626 648.968 956.34 650.355C957.054 651.742 958.242 652.826 959.688 653.411C961.134 653.996 962.742 654.043 964.219 653.543C964.624 653.405 965.073 653.519 965.363 653.833C965.654 654.146 965.734 654.602 965.566 654.996C964.759 656.893 963.429 658.521 961.73 659.69C960.032 660.858 958.035 661.519 955.975 661.595C953.915 661.67 951.875 661.157 950.096 660.116C948.316 659.075 946.87 657.548 945.926 655.715C944.983 653.882 944.581 651.818 944.767 649.765C944.954 647.712 945.721 645.754 946.98 644.121C948.238 642.488 949.936 641.247 951.874 640.544C953.812 639.84 955.91 639.703 957.923 640.149C958.341 640.241 958.666 640.571 958.752 640.99ZM955.255 642.069C954.358 642.103 953.467 642.275 952.615 642.584C951.064 643.147 949.706 644.14 948.699 645.446C947.693 646.753 947.079 648.319 946.929 649.961C946.78 651.604 947.102 653.255 947.857 654.722C948.612 656.188 949.769 657.409 951.192 658.242C952.616 659.075 954.247 659.485 955.896 659.425C957.544 659.365 959.141 658.836 960.5 657.901C961.247 657.387 961.904 656.762 962.453 656.052C961.238 656.097 960.018 655.887 958.873 655.424C956.945 654.644 955.361 653.198 954.409 651.348C953.457 649.499 953.201 647.37 953.686 645.347C953.974 644.147 954.512 643.032 955.255 642.069Z" fill="#EEEA81" fill-opacity="0.5"/>
<path fill-rule="evenodd" clip-rule="evenodd" d="M761.189 621.11C754.909 619.099 748.187 622.559 746.175 628.839C744.164 635.119 747.624 641.841 753.904 643.852C760.184 645.864 766.906 642.404 768.917 636.124C770.929 629.844 767.469 623.122 761.189 621.11ZM758.508 622.757C759.181 622.825 759.857 622.963 760.526 623.178C762.798 623.905 764.618 625.386 765.801 627.256C764.031 628.202 762.174 628.737 760.128 628.914C759.751 626.971 759.215 625 758.508 622.757ZM756.242 622.797C753.351 623.188 750.73 624.868 749.187 627.42C752.512 628.348 755.372 628.891 757.926 628.969C757.539 627.076 756.987 625.11 756.242 622.797ZM748.27 629.417C748.261 629.445 748.252 629.473 748.243 629.501C747.51 631.787 747.664 634.144 748.513 636.201C751.949 633.768 755.054 632.631 758.07 632.533L758.072 632.533C758.202 632.529 758.334 632.527 758.468 632.527C758.444 632.287 758.417 632.049 758.389 631.811C758.362 631.59 758.333 631.369 758.302 631.149C755.284 631.114 751.989 630.473 748.27 629.417ZM749.566 638.117C750.747 639.792 752.463 641.111 754.566 641.785C755.856 642.198 757.168 642.329 758.437 642.212C758.642 639.249 758.709 636.852 758.619 634.7C758.457 634.697 758.297 634.698 758.14 634.703C755.608 634.785 752.844 635.753 749.566 638.117ZM760.644 641.747C762.954 640.973 764.951 639.345 766.149 637.114C764.277 635.999 762.455 635.3 760.801 634.955C760.87 636.968 760.81 639.162 760.644 641.747ZM766.965 635.076C767.517 633.077 767.404 631.039 766.752 629.209C764.758 630.263 762.69 630.853 760.482 631.062C760.504 631.225 760.524 631.388 760.544 631.552C760.591 631.938 760.631 632.327 760.666 632.721C762.66 633.057 764.808 633.834 766.965 635.076Z" fill="#FBA86B" fill-opacity="0.25"/>
<path fill-rule="evenodd" clip-rule="evenodd" d="M379.308 505.216C377.819 503.073 377.309 500.285 378.167 497.608C379.63 493.04 384.518 490.524 389.086 491.987C393.653 493.45 396.17 498.338 394.707 502.906C393.849 505.583 391.815 507.555 389.359 508.435L387.707 517.611C387.633 518.021 387.331 518.353 386.929 518.464C386.528 518.576 386.098 518.448 385.823 518.134L382.077 513.867L376.549 515.164C376.143 515.259 375.719 515.113 375.457 514.789C375.195 514.465 375.142 514.019 375.32 513.643L379.308 505.216ZM380.234 498.27C381.332 494.844 384.998 492.957 388.424 494.054C391.849 495.152 393.736 498.818 392.639 502.243C391.95 504.395 390.247 505.94 388.227 506.519C388.158 506.531 388.091 506.549 388.027 506.573C386.886 506.862 385.653 506.844 384.45 506.459C381.025 505.362 379.137 501.695 380.234 498.27ZM387.065 508.92C385.989 508.998 384.879 508.876 383.788 508.527C382.697 508.177 381.723 507.632 380.893 506.943L378.246 512.536L382.215 511.605C382.606 511.513 383.015 511.644 383.279 511.945L385.969 515.01L387.065 508.92Z" fill="#EEEA81" fill-opacity="0.5"/>
<path fill-rule="evenodd" clip-rule="evenodd" d="M538.14 461.289C537.523 463.216 535.686 464.412 533.756 464.3L529.759 476.778C531.921 477.213 534.179 476.906 536.159 475.886C538.138 474.867 539.7 473.208 540.602 471.196L538.592 470.552C538.021 470.369 537.707 469.758 537.89 469.187C538.072 468.616 538.683 468.302 539.254 468.485L542.356 469.478C542.927 469.661 543.241 470.272 543.058 470.843C542.092 473.859 539.968 476.367 537.152 477.817C534.337 479.266 531.061 479.538 528.045 478.572C525.029 477.606 522.52 475.481 521.071 472.666C519.622 469.85 519.35 466.574 520.316 463.558C520.404 463.284 520.597 463.056 520.853 462.924C521.109 462.792 521.407 462.768 521.681 462.856L524.782 463.849C525.353 464.032 525.668 464.643 525.485 465.214C525.302 465.785 524.691 466.099 524.12 465.916L522.11 465.273C521.675 467.434 521.982 469.692 523.001 471.672C524.02 473.652 525.679 475.214 527.692 476.115L531.689 463.638C530.052 462.608 529.253 460.567 529.87 458.64C530.602 456.356 533.046 455.098 535.33 455.829C537.613 456.561 538.871 459.005 538.14 461.289ZM534.667 457.897C533.525 457.531 532.303 458.16 531.938 459.302C531.572 460.444 532.201 461.666 533.343 462.032C534.485 462.398 535.707 461.768 536.072 460.627C536.438 459.485 535.809 458.263 534.667 457.897Z" fill="#0077DF" fill-opacity="0.25"/>
<path fill-rule="evenodd" clip-rule="evenodd" d="M1134.64 613.307C1134.81 613.578 1134.85 613.909 1134.75 614.213L1130.45 627.652C1129.71 629.936 1127.27 631.194 1124.99 630.462C1122.7 629.731 1121.44 627.287 1122.18 625.003C1122.91 622.719 1125.35 621.461 1127.63 622.192C1128.39 622.434 1129.03 622.861 1129.53 623.408L1132.29 614.771L1121.4 613.183L1117.38 625.746C1116.65 628.029 1114.2 629.288 1111.92 628.556C1109.64 627.825 1108.38 625.38 1109.11 623.097C1109.84 620.813 1112.28 619.555 1114.57 620.286C1115.32 620.528 1115.96 620.955 1116.46 621.502L1119.62 611.645C1119.78 611.14 1120.28 610.825 1120.81 610.902L1133.87 612.808C1134.19 612.854 1134.47 613.037 1134.64 613.307ZM1128.38 626.99C1128.74 625.848 1128.11 624.626 1126.97 624.26C1125.83 623.894 1124.61 624.523 1124.24 625.665C1123.88 626.807 1124.51 628.029 1125.65 628.395C1126.79 628.761 1128.01 628.131 1128.38 626.99ZM1113.91 622.354C1115.05 622.72 1115.68 623.942 1115.31 625.084C1114.95 626.225 1113.72 626.855 1112.58 626.489C1111.44 626.123 1110.81 624.901 1111.18 623.759C1111.54 622.617 1112.76 621.988 1113.91 622.354Z" fill="#FBA86B" fill-opacity="0.25"/>
<path fill-rule="evenodd" clip-rule="evenodd" d="M954.38 796.441C954.537 796.746 954.535 797.091 954.405 797.382C954.369 797.463 954.323 797.54 954.267 797.611L940.422 815.949C940.154 816.304 939.696 816.46 939.267 816.341C938.838 816.223 938.525 815.855 938.477 815.412L937.367 805.199L929.7 798.362C929.368 798.066 929.25 797.597 929.403 797.179C929.556 796.761 929.948 796.478 930.393 796.467L953.362 795.854C953.453 795.849 953.543 795.856 953.631 795.874C953.696 795.887 953.759 795.906 953.819 795.931C954.053 796.024 954.255 796.2 954.38 796.441ZM948.689 798.15L933.188 798.564L938.567 803.36L948.689 798.15ZM939.561 805.291L949.682 800.08L940.339 812.456L939.561 805.291Z" fill="#FBA86B" fill-opacity="0.25"/>
<path d="M714.557 903.137C715.122 902.941 715.738 903.239 715.936 903.802L715.939 903.809C715.943 903.819 715.95 903.837 715.96 903.863C715.981 903.915 716.017 903.997 716.067 904.1C716.168 904.308 716.328 904.596 716.555 904.907C717.013 905.532 717.709 906.198 718.716 906.521C719.724 906.843 720.677 906.705 721.413 906.463C721.778 906.342 722.076 906.2 722.279 906.09C722.38 906.035 722.456 905.989 722.503 905.959C722.527 905.944 722.543 905.933 722.552 905.928L722.559 905.923C723.047 905.58 723.721 905.696 724.067 906.183C724.414 906.672 724.299 907.35 723.811 907.697L723.182 906.811C723.811 907.697 723.811 907.696 723.811 907.697L723.809 907.698L723.807 907.699L723.803 907.702L723.793 907.709L723.762 907.73C723.737 907.747 723.703 907.769 723.661 907.795C723.577 907.848 723.46 907.919 723.313 907.998C723.021 908.157 722.604 908.355 722.093 908.524C721.076 908.86 719.631 909.093 718.054 908.588C716.477 908.083 715.436 907.053 714.804 906.189C714.486 905.755 714.262 905.351 714.116 905.052C714.043 904.902 713.988 904.777 713.951 904.685C713.932 904.639 713.918 904.602 713.907 904.573L713.894 904.538L713.89 904.526L713.888 904.521L713.887 904.52C713.887 904.519 713.887 904.518 714.912 904.162L713.887 904.518C713.69 903.951 713.991 903.333 714.557 903.137Z" fill="#EEEA81" fill-opacity="0.5"/>
<path d="M716.568 898.994C716.751 898.423 717.362 898.108 717.933 898.291L717.943 898.294C718.514 898.477 718.829 899.088 718.646 899.659C718.463 900.23 717.852 900.545 717.281 900.362L717.271 900.359C716.7 900.176 716.385 899.565 716.568 898.994Z" fill="#EEEA81" fill-opacity="0.5"/>
<path d="M724.135 900.278C723.564 900.095 722.953 900.41 722.77 900.98C722.587 901.551 722.902 902.162 723.473 902.345L723.483 902.349C724.054 902.532 724.665 902.217 724.848 901.646C725.031 901.075 724.716 900.464 724.146 900.281L724.135 900.278Z" fill="#EEEA81" fill-opacity="0.5"/>
<path fill-rule="evenodd" clip-rule="evenodd" d="M723.352 892.048C717.072 890.037 710.35 893.497 708.338 899.777C706.327 906.057 709.787 912.779 716.067 914.791C722.347 916.802 729.069 913.342 731.081 907.062C733.092 900.782 729.632 894.06 723.352 892.048ZM710.406 900.439C712.052 895.301 717.551 892.47 722.69 894.116C727.828 895.762 730.659 901.261 729.013 906.4C727.367 911.538 721.868 914.369 716.729 912.723C711.591 911.077 708.76 905.578 710.406 900.439Z" fill="#EEEA81" fill-opacity="0.5"/>
<path d="M978.394 998.573C978.965 998.756 979.279 999.367 979.096 999.938L978.434 1002.01C978.251 1002.58 977.64 1002.89 977.069 1002.71C976.498 1002.52 976.184 1001.91 976.367 1001.34L977.029 999.275C977.212 998.704 977.823 998.39 978.394 998.573Z" fill="#EEEA81" fill-opacity="0.5"/>
<path fill-rule="evenodd" clip-rule="evenodd" d="M968.218 1008.99C969.315 1005.57 972.982 1003.68 976.407 1004.78C979.833 1005.87 981.72 1009.54 980.623 1012.96C979.526 1016.39 975.859 1018.28 972.434 1017.18C969.008 1016.08 967.121 1012.42 968.218 1008.99ZM975.745 1006.84C973.461 1006.11 971.017 1007.37 970.285 1009.65C969.554 1011.94 970.812 1014.38 973.096 1015.11C975.38 1015.84 977.824 1014.59 978.555 1012.3C979.287 1010.02 978.029 1007.57 975.745 1006.84Z" fill="#EEEA81" fill-opacity="0.5"/>
<path d="M972.474 1020.61C972.657 1020.04 972.342 1019.43 971.771 1019.25C971.2 1019.06 970.589 1019.38 970.407 1019.95L969.744 1022.02C969.561 1022.59 969.876 1023.2 970.447 1023.38C971.018 1023.57 971.629 1023.25 971.812 1022.68L972.474 1020.61Z" fill="#EEEA81" fill-opacity="0.5"/>
<path d="M968.457 999.394C968.99 999.119 969.645 999.329 969.919 999.862L970.917 1001.8C971.191 1002.33 970.982 1002.99 970.449 1003.26C969.916 1003.54 969.261 1003.33 968.987 1002.79L967.989 1000.86C967.715 1000.32 967.924 999.668 968.457 999.394Z" fill="#EEEA81" fill-opacity="0.5"/>
<path d="M979.854 1019.16C979.58 1018.63 978.925 1018.42 978.392 1018.69C977.859 1018.97 977.65 1019.62 977.924 1020.15L978.922 1022.09C979.196 1022.63 979.851 1022.84 980.384 1022.56C980.917 1022.29 981.126 1021.63 980.852 1021.1L979.854 1019.16Z" fill="#EEEA81" fill-opacity="0.5"/>
<path d="M962.016 1007C962.198 1006.43 962.81 1006.12 963.38 1006.3L965.448 1006.96C966.019 1007.15 966.333 1007.76 966.151 1008.33C965.968 1008.9 965.357 1009.21 964.786 1009.03L962.718 1008.37C962.147 1008.19 961.833 1007.57 962.016 1007Z" fill="#EEEA81" fill-opacity="0.5"/>
<path d="M984.055 1012.92C983.484 1012.74 982.873 1013.06 982.69 1013.63C982.507 1014.2 982.822 1014.81 983.393 1014.99L985.46 1015.65C986.031 1015.84 986.642 1015.52 986.825 1014.95C987.008 1014.38 986.694 1013.77 986.123 1013.59L984.055 1012.92Z" fill="#EEEA81" fill-opacity="0.5"/>
<path d="M966.705 1014.95C966.979 1015.48 966.77 1016.14 966.237 1016.41L964.299 1017.41C963.766 1017.68 963.111 1017.47 962.837 1016.94C962.562 1016.41 962.772 1015.75 963.305 1015.48L965.243 1014.48C965.776 1014.21 966.431 1014.42 966.705 1014.95Z" fill="#EEEA81" fill-opacity="0.5"/>
<path d="M985.536 1006.48C986.069 1006.2 986.279 1005.55 986.004 1005.01C985.73 1004.48 985.075 1004.27 984.542 1004.55L982.604 1005.54C982.071 1005.82 981.862 1006.47 982.136 1007.01C982.41 1007.54 983.065 1007.75 983.598 1007.47L985.536 1006.48Z" fill="#EEEA81" fill-opacity="0.5"/>
<path fill-rule="evenodd" clip-rule="evenodd" d="M530.861 672.19C530.453 672.059 530.006 672.181 529.72 672.501L523.075 679.954L520.645 679.175C519.823 678.912 518.929 678.986 518.161 679.381C517.393 679.777 516.814 680.461 516.551 681.283L514.233 688.519C513.969 689.342 514.043 690.235 514.439 691.003C514.834 691.771 515.518 692.351 516.341 692.614L531.097 697.341C531.84 697.587 532.648 697.556 533.371 697.255C534.095 696.953 534.687 696.4 535.036 695.697L539.443 686.849C539.653 686.427 539.768 685.963 539.781 685.491C539.794 685.019 539.704 684.55 539.518 684.117C539.331 683.683 539.053 683.295 538.702 682.979C538.352 682.665 537.939 682.431 537.49 682.292L532.678 680.75L533.672 677.649C534.023 676.553 533.924 675.361 533.397 674.337C532.87 673.314 531.958 672.541 530.861 672.19ZM530.796 674.556L524.379 681.753L521.138 691.871L531.776 695.279C532.025 695.361 532.294 695.352 532.536 695.251C532.778 695.15 532.975 694.966 533.091 694.731L537.498 685.884C537.568 685.744 537.606 685.589 537.611 685.432C537.615 685.274 537.585 685.118 537.523 684.974C537.461 684.829 537.368 684.7 537.251 684.594C537.134 684.489 536.996 684.411 536.845 684.365L536.833 684.361L530.982 682.487C530.412 682.304 530.097 681.693 530.28 681.122L531.604 676.987C531.78 676.439 531.731 675.843 531.467 675.331C531.307 675.02 531.076 674.755 530.796 674.556ZM522.05 681.905L519.07 691.209L517.003 690.547C516.729 690.459 516.501 690.266 516.369 690.01C516.237 689.754 516.212 689.456 516.3 689.182L518.618 681.946C518.706 681.671 518.899 681.443 519.155 681.312C519.411 681.18 519.709 681.155 519.983 681.243L522.05 681.905Z" fill="#0077DF" fill-opacity="0.25"/>
<path fill-rule="evenodd" clip-rule="evenodd" d="M753.834 1162.17C753.263 1161.99 752.652 1162.3 752.469 1162.87L748.164 1176.31C747.982 1176.88 748.296 1177.49 748.867 1177.68L750.249 1178.12C749.875 1178.52 749.582 1179 749.404 1179.56C748.764 1181.56 749.865 1183.69 751.863 1184.33C753.861 1184.97 756 1183.87 756.64 1181.87C756.818 1181.32 756.861 1180.75 756.789 1180.21L763.687 1182.42C763.314 1182.82 763.02 1183.31 762.843 1183.86C762.203 1185.86 763.304 1188 765.302 1188.64C767.3 1189.28 769.439 1188.18 770.079 1186.18C770.257 1185.62 770.3 1185.06 770.227 1184.52L771.609 1184.96C772.18 1185.14 772.791 1184.83 772.974 1184.26L774.63 1179.09C774.717 1178.81 774.693 1178.52 774.561 1178.26L772.453 1174.17C772.321 1173.91 772.093 1173.72 771.819 1173.63L768.718 1172.64L770.043 1168.5C770.225 1167.93 769.911 1167.32 769.34 1167.14L753.834 1162.17ZM771.238 1182.56L772.425 1178.85L770.729 1175.56L768.056 1174.7L766.069 1180.91L771.238 1182.56ZM766.957 1183.47C766.101 1183.2 765.184 1183.67 764.91 1184.52C764.636 1185.38 765.108 1186.3 765.964 1186.57C766.82 1186.85 767.737 1186.37 768.011 1185.52C768.286 1184.66 767.814 1183.74 766.957 1183.47ZM751.472 1180.22C751.746 1179.36 752.662 1178.89 753.519 1179.17C754.375 1179.44 754.847 1180.36 754.573 1181.21C754.298 1182.07 753.382 1182.54 752.525 1182.27C751.669 1181.99 751.197 1181.08 751.472 1180.22ZM764.002 1180.24L750.563 1175.94L754.205 1164.57L767.644 1168.87L764.002 1180.24Z" fill="#0077DF" fill-opacity="0.25"/>
<path fill-rule="evenodd" clip-rule="evenodd" d="M187.643 796.221C187.846 795.784 187.736 795.265 187.374 794.948C187.011 794.63 186.483 794.59 186.076 794.848L171.765 803.942C171.41 804.168 171.217 804.579 171.271 804.996C171.325 805.414 171.615 805.763 172.017 805.892L180.149 808.497L176.984 815.32C176.781 815.757 176.891 816.276 177.253 816.593C177.616 816.911 178.144 816.951 178.551 816.693L192.862 807.599C193.217 807.373 193.41 806.962 193.356 806.545C193.302 806.127 193.012 805.778 192.61 805.649L184.478 803.044L187.643 796.221ZM181.982 806.804L174.886 804.531L184.116 798.666L181.991 803.246C181.86 803.529 181.857 803.854 181.982 804.139C182.107 804.424 182.348 804.642 182.645 804.737L189.741 807.01L180.511 812.875L182.636 808.295C182.767 808.012 182.77 807.687 182.645 807.402C182.52 807.117 182.279 806.899 181.982 806.804Z" fill="#EEEA81" fill-opacity="0.5"/>
<path fill-rule="evenodd" clip-rule="evenodd" d="M440.103 1032.88C438.825 1030.39 435.775 1029.42 433.292 1030.7C430.809 1031.97 429.832 1035.02 431.11 1037.51L431.658 1038.57C431.667 1038.59 431.676 1038.61 431.684 1038.62L436.784 1048.53L446.69 1043.43C446.707 1043.42 446.724 1043.41 446.742 1043.4L447.806 1042.85C450.289 1041.58 451.266 1038.53 449.988 1036.04C448.71 1033.56 445.66 1032.58 443.177 1033.86L442.113 1034.41C441.58 1034.68 440.925 1034.47 440.651 1033.94L440.103 1032.88ZM447.788 1045.31C447.771 1045.31 447.754 1045.32 447.736 1045.33L436.814 1050.96C436.557 1051.09 436.26 1051.11 435.985 1051.02C435.985 1051.02 435.986 1051.03 435.985 1051.02C435.985 1051.02 435.984 1051.02 435.984 1051.02C435.709 1050.94 435.481 1050.74 435.349 1050.49L429.727 1039.56C429.718 1039.55 429.709 1039.53 429.701 1039.51L429.18 1038.5C427.353 1034.95 428.749 1030.59 432.298 1028.76C435.848 1026.94 440.206 1028.33 442.033 1031.88L442.084 1031.98L442.183 1031.93C445.733 1030.1 450.091 1031.5 451.918 1035.05C453.745 1038.6 452.349 1042.96 448.8 1044.78L447.788 1045.31Z" fill="#F1AAB5" fill-opacity="0.25"/>
<path fill-rule="evenodd" clip-rule="evenodd" d="M525.774 164.352C526.175 164.501 526.452 164.871 526.481 165.298C526.585 166.854 527.245 168.321 528.339 169.433C529.434 170.544 530.891 171.226 532.446 171.353C534.001 171.481 535.549 171.046 536.811 170.129C538.072 169.211 538.962 167.871 539.319 166.352C539.417 165.936 539.75 165.616 540.171 165.535C540.591 165.454 541.019 165.627 541.265 165.978C542.448 167.666 543.126 169.656 543.219 171.716C543.313 173.776 542.817 175.819 541.792 177.608C540.766 179.396 539.252 180.856 537.427 181.815C535.602 182.775 533.542 183.195 531.487 183.026C529.432 182.857 527.468 182.106 525.824 180.862C524.18 179.618 522.925 177.931 522.205 175.999C521.484 174.067 521.329 171.97 521.758 169.953C522.186 167.936 523.179 166.083 524.622 164.611C524.922 164.305 525.373 164.204 525.774 164.352ZM524.841 167.891C524.394 168.67 524.069 169.517 523.881 170.404C523.539 172.017 523.663 173.695 524.239 175.241C524.815 176.786 525.819 178.136 527.134 179.131C528.449 180.127 530.021 180.727 531.665 180.862C533.309 180.997 534.957 180.661 536.417 179.894C537.877 179.126 539.088 177.959 539.908 176.528C540.729 175.097 541.125 173.462 541.051 171.814C541.009 170.909 540.827 170.02 540.514 169.179C539.91 170.233 539.086 171.158 538.088 171.884C536.406 173.108 534.341 173.687 532.268 173.517C530.195 173.347 528.252 172.438 526.793 170.956C525.926 170.077 525.265 169.03 524.841 167.891Z" fill="#EEEA81" fill-opacity="0.5"/>
<path fill-rule="evenodd" clip-rule="evenodd" d="M404.402 321.499C399.373 325.765 398.754 333.3 403.019 338.329C407.285 343.358 414.82 343.977 419.849 339.711C424.878 335.446 425.497 327.911 421.231 322.882C416.966 317.853 409.431 317.234 404.402 321.499ZM404.382 324.646C404.795 324.11 405.27 323.61 405.806 323.155C407.625 321.612 409.845 320.85 412.057 320.836C411.924 322.838 411.396 324.697 410.464 326.527C408.615 325.82 406.659 325.232 404.382 324.646ZM403.217 326.589C402.02 329.25 402.059 332.363 403.409 335.022C405.955 332.691 407.928 330.552 409.346 328.426C407.534 327.752 405.574 327.181 403.217 326.589ZM404.618 336.857C404.637 336.88 404.656 336.902 404.675 336.925C406.228 338.755 408.309 339.871 410.504 340.239C410.257 336.036 410.934 332.799 412.446 330.188L412.447 330.187C412.513 330.074 412.581 329.961 412.652 329.848C412.435 329.741 412.219 329.637 412.003 329.536C411.8 329.441 411.598 329.349 411.394 329.259C409.768 331.802 407.481 334.26 404.618 336.857ZM412.687 340.359C414.734 340.243 416.761 339.484 418.445 338.056C419.477 337.18 420.283 336.135 420.855 334.997C418.448 333.255 416.45 331.931 414.576 330.868C414.487 331.005 414.403 331.141 414.324 331.277C413.056 333.469 412.415 336.326 412.687 340.359ZM421.627 332.878C422.192 330.507 421.867 327.952 420.607 325.755C418.671 326.754 417.114 327.93 415.947 329.152C417.691 330.158 419.521 331.369 421.627 332.878ZM419.309 323.985C417.905 322.459 416.116 321.477 414.217 321.062C414.058 323.312 413.464 325.379 412.474 327.363C412.623 327.431 412.773 327.5 412.922 327.569C413.275 327.734 413.627 327.906 413.979 328.084C415.319 326.57 417.115 325.158 419.309 323.985Z" fill="#FBA86B" fill-opacity="0.25"/>
<path fill-rule="evenodd" clip-rule="evenodd" d="M104.052 584.281C101.445 584.411 98.8099 583.369 96.9913 581.225C93.8891 577.567 94.3392 572.087 97.9967 568.985C101.654 565.883 107.134 566.333 110.236 569.991C112.054 572.134 112.652 574.904 112.099 577.454L119.013 583.709C119.322 583.989 119.444 584.421 119.326 584.821C119.208 585.22 118.872 585.517 118.461 585.585L112.858 586.507L111.035 591.884C110.901 592.279 110.553 592.562 110.139 592.613C109.725 592.664 109.319 592.473 109.094 592.122L104.052 584.281ZM98.6469 579.82C96.3203 577.077 96.6579 572.967 99.401 570.641C102.144 568.314 106.254 568.652 108.581 571.395C110.042 573.118 110.452 575.38 109.875 577.401C109.849 577.466 109.829 577.532 109.815 577.599C109.457 578.72 108.79 579.757 107.827 580.574C105.083 582.901 100.974 582.564 98.6469 579.82ZM111.298 579.657C110.795 580.612 110.105 581.489 109.231 582.23C108.357 582.971 107.38 583.509 106.356 583.85L109.702 589.054L111.011 585.193C111.14 584.813 111.468 584.535 111.863 584.47L115.887 583.808L111.298 579.657Z" fill="#EEEA81" fill-opacity="0.5"/>
<path fill-rule="evenodd" clip-rule="evenodd" d="M150.787 426.252C152.096 427.795 152.14 429.987 151.024 431.566L159.499 441.558C161.012 439.953 161.945 437.874 162.127 435.655C162.31 433.436 161.728 431.233 160.497 429.403L158.888 430.768C158.431 431.156 157.746 431.1 157.358 430.643C156.97 430.186 157.026 429.501 157.483 429.113L159.967 427.006C160.424 426.619 161.109 426.675 161.497 427.132C163.545 429.547 164.55 432.677 164.291 435.833C164.032 438.989 162.529 441.913 160.114 443.961C157.699 446.01 154.57 447.015 151.413 446.756C148.257 446.496 145.333 444.994 143.285 442.579C143.099 442.359 143.008 442.075 143.031 441.788C143.055 441.501 143.191 441.235 143.411 441.049L145.894 438.943C146.351 438.555 147.036 438.611 147.424 439.068C147.812 439.526 147.756 440.21 147.298 440.598L145.689 441.963C147.293 443.476 149.372 444.41 151.591 444.592C153.81 444.774 156.013 444.193 157.843 442.962L149.368 432.97C147.628 433.814 145.473 433.412 144.165 431.869C142.614 430.041 142.839 427.301 144.667 425.75C146.496 424.199 149.236 424.424 150.787 426.252ZM146.072 427.405C145.157 428.181 145.045 429.551 145.82 430.465C146.596 431.38 147.966 431.492 148.88 430.717C149.795 429.941 149.907 428.571 149.132 427.657C148.356 426.742 146.986 426.63 146.072 427.405Z" fill="#0077DF" fill-opacity="0.25"/>
<path fill-rule="evenodd" clip-rule="evenodd" d="M595.316 0.444395C595.635 0.444198 595.938 0.584399 596.145 0.827735L605.273 11.5892C606.824 13.4179 606.599 16.1578 604.77 17.7089C602.941 19.26 600.201 19.035 598.65 17.2062C597.099 15.3775 597.324 12.6376 599.153 11.0865C599.756 10.5749 600.458 10.2566 601.184 10.1252L595.318 3.20919L588.21 11.6102L596.743 21.6704C598.294 23.4991 598.069 26.239 596.24 27.7901C594.412 29.3412 591.672 29.1162 590.121 27.2874C588.57 25.4587 588.795 22.7188 590.623 21.1677C591.227 20.6561 591.929 20.3378 592.655 20.2064L585.96 12.3132C585.617 11.9085 585.616 11.315 585.959 10.9099L594.488 0.828754C594.694 0.585166 594.997 0.444591 595.316 0.444395ZM603.617 12.9935C602.841 12.0791 601.471 11.9666 600.557 12.7421C599.643 13.5177 599.53 14.8876 600.306 15.802C601.081 16.7164 602.451 16.8289 603.366 16.0533C604.28 15.2778 604.392 13.9078 603.617 12.9935ZM592.028 22.8233C592.942 22.0477 594.312 22.1603 595.088 23.0746C595.863 23.989 595.751 25.359 594.836 26.1345C593.922 26.9101 592.552 26.7975 591.776 25.8832C591.001 24.9688 591.113 23.5989 592.028 22.8233Z" fill="#FBA86B" fill-opacity="0.25"/>
<path fill-rule="evenodd" clip-rule="evenodd" d="M655.386 250.289C655.728 250.317 656.019 250.501 656.197 250.765C656.247 250.839 656.288 250.919 656.319 251.004L664.558 272.453C664.718 272.868 664.608 273.339 664.28 273.64C663.953 273.942 663.475 274.013 663.074 273.82L653.819 269.359L643.961 272.25C643.534 272.375 643.074 272.227 642.8 271.876C642.526 271.525 642.494 271.043 642.72 270.659L654.349 250.842C654.393 250.763 654.447 250.69 654.508 250.625C654.554 250.577 654.603 250.533 654.656 250.495C654.859 250.346 655.115 250.267 655.386 250.289ZM653.826 256.023L645.978 269.396L652.894 267.368L653.826 256.023ZM655.057 267.546L655.989 256.2L661.55 270.675L655.057 267.546Z" fill="#FBA86B" fill-opacity="0.25"/>
<path d="M619.078 510.252C619.211 509.669 619.79 509.304 620.372 509.433L620.38 509.435C620.391 509.437 620.41 509.441 620.437 509.445C620.492 509.455 620.58 509.468 620.694 509.48C620.924 509.504 621.254 509.521 621.638 509.492C622.41 509.434 623.344 509.196 624.15 508.512C624.957 507.828 625.344 506.946 625.527 506.193C625.618 505.819 625.655 505.491 625.669 505.261C625.676 505.146 625.677 505.057 625.677 505.001C625.677 504.973 625.676 504.954 625.676 504.943L625.675 504.935C625.643 504.339 626.098 503.828 626.694 503.792C627.293 503.756 627.807 504.212 627.843 504.811L626.759 504.876C627.843 504.811 627.843 504.81 627.843 504.811L627.843 504.813L627.843 504.815L627.843 504.82L627.844 504.832L627.845 504.87C627.846 504.9 627.847 504.94 627.848 504.99C627.848 505.089 627.846 505.226 627.836 505.392C627.816 505.724 627.764 506.183 627.637 506.706C627.384 507.747 626.817 509.097 625.554 510.168C624.292 511.239 622.867 511.577 621.799 511.657C621.263 511.697 620.802 511.674 620.471 511.639C620.305 511.622 620.17 511.602 620.072 511.585C620.023 511.577 619.983 511.569 619.954 511.564L619.917 511.556L619.905 511.553L619.9 511.552L619.898 511.552C619.897 511.552 619.896 511.551 620.137 510.493L619.896 511.551C619.311 511.418 618.945 510.836 619.078 510.252Z" fill="#EEEA81" fill-opacity="0.5"/>
<path d="M616.626 506.354C616.238 505.897 616.295 505.212 616.752 504.824L616.76 504.817C617.217 504.429 617.902 504.485 618.29 504.943C618.678 505.4 618.622 506.085 618.164 506.473L618.156 506.48C617.699 506.867 617.014 506.811 616.626 506.354Z" fill="#EEEA81" fill-opacity="0.5"/>
<path d="M621.719 500.611C621.261 500.999 621.205 501.684 621.593 502.141C621.981 502.598 622.666 502.655 623.123 502.267L623.131 502.26C623.588 501.872 623.645 501.187 623.257 500.73C622.869 500.273 622.184 500.216 621.727 500.604L621.719 500.611Z" fill="#EEEA81" fill-opacity="0.5"/>
<path fill-rule="evenodd" clip-rule="evenodd" d="M614.32 496.923C609.291 501.188 608.672 508.723 612.938 513.752C617.203 518.781 624.738 519.4 629.767 515.135C634.796 510.869 635.415 503.334 631.15 498.305C626.884 493.276 619.349 492.657 614.32 496.923ZM614.594 512.348C611.104 508.233 611.61 502.069 615.725 498.579C619.839 495.089 626.004 495.595 629.494 499.71C632.984 503.824 632.478 509.989 628.363 513.479C624.248 516.969 618.084 516.463 614.594 512.348Z" fill="#EEEA81" fill-opacity="0.5"/>
<path d="M839.627 336.827C840.085 336.439 840.769 336.496 841.157 336.953L842.562 338.609C842.949 339.066 842.893 339.751 842.436 340.138C841.979 340.526 841.294 340.47 840.906 340.013L839.502 338.357C839.114 337.9 839.17 337.215 839.627 336.827Z" fill="#EEEA81" fill-opacity="0.5"/>
<path fill-rule="evenodd" clip-rule="evenodd" d="M843.086 350.974C840.759 348.231 841.097 344.121 843.84 341.794C846.583 339.467 850.693 339.805 853.02 342.548C855.346 345.291 855.009 349.401 852.266 351.728C849.523 354.054 845.413 353.717 843.086 350.974ZM845.244 343.45C843.416 345.001 843.191 347.741 844.742 349.569C846.293 351.398 849.033 351.623 850.861 350.072C852.69 348.521 852.915 345.781 851.364 343.952C849.813 342.124 847.073 341.899 845.244 343.45Z" fill="#EEEA81" fill-opacity="0.5"/>
<path d="M855.2 353.509C854.812 353.052 854.127 352.996 853.67 353.383C853.213 353.771 853.157 354.456 853.544 354.913L854.949 356.569C855.336 357.026 856.021 357.082 856.478 356.695C856.936 356.307 856.992 355.622 856.604 355.165L855.2 353.509Z" fill="#EEEA81" fill-opacity="0.5"/>
<path d="M835.068 345.694C835.117 345.097 835.641 344.652 836.239 344.701L838.411 344.88C839.009 344.929 839.453 345.453 839.404 346.05C839.355 346.648 838.831 347.093 838.234 347.043L836.061 346.865C835.464 346.816 835.019 346.292 835.068 345.694Z" fill="#EEEA81" fill-opacity="0.5"/>
<path d="M857.872 346.478C857.275 346.429 856.751 346.874 856.702 347.471C856.652 348.069 857.097 348.593 857.695 348.642L859.867 348.82C860.464 348.869 860.989 348.425 861.038 347.827C861.087 347.23 860.642 346.706 860.045 346.657L857.872 346.478Z" fill="#EEEA81" fill-opacity="0.5"/>
<path d="M838.119 355.186C837.731 354.729 837.788 354.044 838.245 353.657L839.901 352.252C840.358 351.864 841.043 351.921 841.43 352.378C841.818 352.835 841.762 353.52 841.305 353.908L839.649 355.312C839.192 355.7 838.507 355.644 838.119 355.186Z" fill="#EEEA81" fill-opacity="0.5"/>
<path d="M854.801 339.614C854.344 340.002 854.288 340.687 854.675 341.144C855.063 341.601 855.748 341.657 856.205 341.27L857.861 339.865C858.318 339.477 858.374 338.792 857.987 338.335C857.599 337.878 856.914 337.822 856.457 338.21L854.801 339.614Z" fill="#EEEA81" fill-opacity="0.5"/>
<path d="M847.342 355.409C847.94 355.459 848.384 355.983 848.335 356.58L848.157 358.753C848.108 359.35 847.584 359.795 846.986 359.746C846.389 359.697 845.944 359.172 845.993 358.575L846.172 356.402C846.221 355.805 846.745 355.36 847.342 355.409Z" fill="#EEEA81" fill-opacity="0.5"/>
<path d="M850.113 334.947C850.162 334.349 849.717 333.825 849.12 333.776C848.522 333.727 847.998 334.172 847.949 334.769L847.77 336.942C847.721 337.539 848.166 338.063 848.763 338.112C849.361 338.161 849.885 337.717 849.934 337.119L850.113 334.947Z" fill="#EEEA81" fill-opacity="0.5"/>
<path fill-rule="evenodd" clip-rule="evenodd" d="M325.919 543.986C325.592 544.263 325.458 544.707 325.579 545.119L328.389 554.701L326.443 556.351C325.785 556.91 325.375 557.707 325.304 558.568C325.233 559.428 325.508 560.282 326.066 560.941L330.981 566.735C331.54 567.394 332.337 567.804 333.198 567.874C334.059 567.945 334.912 567.671 335.571 567.112L347.388 557.09C347.99 556.589 348.391 555.888 348.518 555.115C348.645 554.34 348.488 553.545 348.076 552.877L342.899 544.457C342.651 544.056 342.319 543.713 341.925 543.452C341.531 543.191 341.086 543.02 340.619 542.948C340.153 542.877 339.676 542.908 339.223 543.039C338.771 543.17 338.354 543.396 337.998 543.703L334.145 546.972L332.038 544.488C331.294 543.61 330.23 543.064 329.083 542.97C327.935 542.875 326.797 543.241 325.919 543.986ZM327.893 545.293L330.606 554.546L337.478 562.648L345.997 555.422C346.199 555.255 346.333 555.021 346.376 554.763C346.418 554.504 346.366 554.239 346.228 554.017L341.051 545.597C340.969 545.464 340.858 545.349 340.727 545.262C340.595 545.175 340.447 545.118 340.291 545.094C340.136 545.071 339.977 545.081 339.826 545.125C339.675 545.168 339.535 545.244 339.416 545.348L339.407 545.356L334.721 549.33C334.264 549.717 333.579 549.661 333.191 549.204L330.383 545.893C330.01 545.454 329.479 545.18 328.905 545.133C328.556 545.105 328.21 545.161 327.893 545.293ZM329.503 556.602L335.822 564.052L334.167 565.457C333.947 565.643 333.663 565.734 333.376 565.711C333.089 565.687 332.823 565.551 332.637 565.331L327.722 559.536C327.536 559.317 327.444 559.032 327.468 558.745C327.491 558.459 327.628 558.193 327.847 558.007L329.503 556.602Z" fill="#0077DF" fill-opacity="0.25"/>
<path fill-rule="evenodd" clip-rule="evenodd" d="M859.682 613.935C859.225 614.323 859.169 615.008 859.557 615.465L868.684 626.226C869.072 626.684 869.757 626.74 870.214 626.352L871.321 625.413C871.461 625.941 871.718 626.447 872.095 626.892C873.453 628.492 875.85 628.689 877.45 627.331C879.05 625.974 879.247 623.577 877.89 621.977C877.513 621.532 877.056 621.196 876.558 620.971L882.082 616.286C882.223 616.814 882.48 617.32 882.857 617.764C884.214 619.364 886.611 619.561 888.212 618.204C889.812 616.847 890.009 614.449 888.651 612.849C888.274 612.405 887.817 612.068 887.319 611.844L888.426 610.905C888.883 610.517 888.939 609.832 888.552 609.375L885.041 605.236C884.855 605.017 884.589 604.88 884.302 604.857L879.712 604.479C879.425 604.456 879.141 604.547 878.921 604.734L876.438 606.84L873.629 603.529C873.242 603.071 872.557 603.015 872.099 603.403L859.682 613.935ZM886.194 609.952L883.676 606.983L879.983 606.68L877.842 608.496L882.055 613.462L886.194 609.952ZM884.701 614.065C884.015 614.646 883.931 615.674 884.512 616.36C885.094 617.045 886.122 617.13 886.807 616.548C887.493 615.966 887.577 614.939 886.996 614.253C886.414 613.567 885.387 613.483 884.701 614.065ZM873.751 625.487C873.169 624.802 873.254 623.774 873.939 623.192C874.625 622.611 875.653 622.695 876.234 623.381C876.816 624.067 876.732 625.094 876.046 625.676C875.36 626.258 874.333 626.173 873.751 625.487ZM880.399 614.867L869.638 623.994L861.914 614.888L872.676 605.761L880.399 614.867Z" fill="#0077DF" fill-opacity="0.25"/>
<path fill-rule="evenodd" clip-rule="evenodd" d="M249.632 900.865C249.369 900.462 248.871 900.281 248.409 900.42C247.948 900.56 247.634 900.987 247.638 901.469L247.786 918.424C247.79 918.845 248.037 919.226 248.419 919.401C248.802 919.576 249.252 919.514 249.573 919.242L256.086 913.718L260.202 920.014C260.466 920.417 260.964 920.598 261.425 920.458C261.886 920.319 262.2 919.892 262.196 919.41L262.049 902.455C262.045 902.034 261.798 901.653 261.415 901.478C261.032 901.302 260.582 901.364 260.261 901.637L253.749 907.161L249.632 900.865ZM255.619 911.267L249.937 916.087L249.841 905.152L252.605 909.378C252.775 909.638 253.049 909.813 253.357 909.858C253.665 909.903 253.978 909.813 254.215 909.612L259.898 904.791L259.993 915.727L257.23 911.501C257.06 911.24 256.786 911.065 256.477 911.021C256.169 910.976 255.857 911.066 255.619 911.267Z" fill="#EEEA81" fill-opacity="0.5"/>
<path fill-rule="evenodd" clip-rule="evenodd" d="M584.01 811.794C581.226 811.565 578.784 813.637 578.556 816.42C578.327 819.204 580.398 821.646 583.182 821.874L584.375 821.972C584.394 821.974 584.413 821.976 584.433 821.979L595.538 822.891L596.45 811.786C596.451 811.766 596.452 811.747 596.454 811.727L596.552 810.534C596.78 807.751 594.709 805.309 591.925 805.08C589.142 804.851 586.7 806.923 586.471 809.706L586.373 810.899C586.324 811.497 585.8 811.941 585.203 811.892L584.01 811.794ZM598.622 811.846C598.621 811.866 598.62 811.885 598.619 811.905L597.613 824.149C597.589 824.436 597.453 824.702 597.233 824.888C597.233 824.888 597.233 824.888 597.233 824.888C597.233 824.888 597.232 824.889 597.232 824.889C597.012 825.075 596.728 825.167 596.441 825.143L584.197 824.138C584.177 824.136 584.157 824.134 584.138 824.131L583.004 824.038C579.025 823.711 576.065 820.221 576.392 816.242C576.719 812.264 580.209 809.304 584.187 809.63L584.298 809.639L584.308 809.528C584.634 805.55 588.125 802.59 592.103 802.916C596.082 803.243 599.042 806.733 598.715 810.712L598.622 811.846Z" fill="#F1AAB5" fill-opacity="0.25"/>
<path fill-rule="evenodd" clip-rule="evenodd" d="M873.624 337.797C874.067 338.25 874.203 338.92 873.971 339.51C873.125 341.658 873.078 344.039 873.84 346.219C874.601 348.399 876.119 350.233 878.119 351.388C880.118 352.543 882.465 352.942 884.734 352.512C887.002 352.083 889.042 350.853 890.48 349.048C890.875 348.552 891.524 348.335 892.137 348.493C892.75 348.65 893.214 349.154 893.321 349.778C893.835 352.786 893.482 355.878 892.303 358.693C891.124 361.508 889.168 363.929 886.664 365.672C884.159 367.416 881.21 368.41 878.161 368.539C875.112 368.667 872.089 367.925 869.447 366.398C866.804 364.872 864.651 362.624 863.24 359.919C861.828 357.213 861.216 354.161 861.475 351.121C861.735 348.08 862.855 345.176 864.704 342.749C866.554 340.321 869.056 338.471 871.919 337.414C872.513 337.195 873.181 337.345 873.624 337.797ZM870.135 341.941C869.044 342.701 868.073 343.629 867.26 344.696C865.781 346.638 864.885 348.961 864.677 351.394C864.47 353.826 864.959 356.268 866.089 358.432C867.218 360.597 868.94 362.395 871.054 363.616C873.168 364.837 875.586 365.431 878.025 365.328C880.465 365.225 882.824 364.43 884.828 363.035C886.831 361.64 888.396 359.704 889.339 357.452C889.858 356.214 890.177 354.909 890.29 353.586C888.814 354.614 887.127 355.33 885.332 355.67C882.307 356.242 879.177 355.71 876.511 354.17C873.845 352.63 871.821 350.185 870.806 347.278C870.204 345.553 869.981 343.734 870.135 341.941Z" fill="#EEEA81" fill-opacity="0.5"/>
<path fill-rule="evenodd" clip-rule="evenodd" d="M611.755 471.225C602.327 473.749 596.729 483.438 599.253 492.867C601.776 502.296 611.466 507.893 620.895 505.37C630.323 502.846 635.921 493.156 633.397 483.728C630.874 474.299 621.184 468.701 611.755 471.225ZM609.737 475.422C610.629 474.967 611.581 474.598 612.586 474.329C615.997 473.416 619.449 473.802 622.418 475.183C620.972 477.777 619.089 479.931 616.683 481.788C614.658 479.672 612.413 477.647 609.737 475.422ZM606.948 477.285C603.662 480.087 601.744 484.277 601.867 488.689C606.749 487.182 610.743 485.569 613.986 483.621C611.988 481.573 609.727 479.568 606.948 477.285ZM602.324 491.91C602.334 491.952 602.346 491.994 602.357 492.036C603.275 495.468 605.354 498.279 608.058 500.161C610.387 494.38 613.343 490.479 617.019 487.942L617.02 487.941C617.18 487.831 617.343 487.723 617.509 487.617C617.287 487.337 617.063 487.061 616.838 486.789C616.627 486.534 616.414 486.282 616.2 486.033C612.413 488.406 607.798 490.247 602.324 491.91ZM610.902 501.703C613.714 502.843 616.907 503.11 620.064 502.265C622 501.747 623.739 500.86 625.225 499.699C623.107 495.845 621.272 492.808 619.437 490.2C619.232 490.327 619.034 490.456 618.842 490.588C615.757 492.717 613.091 496.135 610.902 501.703ZM627.6 497.353C629.856 494.538 631.039 490.914 630.744 487.176C627.52 487.288 624.693 487.875 622.358 488.771C624.054 491.222 625.737 494.001 627.6 497.353ZM630.128 483.986C629.215 481.055 627.442 478.609 625.165 476.853C623.527 479.762 621.425 482.152 618.843 484.18C619.001 484.365 619.157 484.552 619.313 484.74C619.681 485.184 620.043 485.636 620.401 486.098C623.153 484.92 626.449 484.167 630.128 483.986Z" fill="#FBA86B" fill-opacity="0.25"/>
<path fill-rule="evenodd" clip-rule="evenodd" d="M43.5536 632.692C39.9839 631.215 37.1171 628.153 36.0411 624.133C34.2057 617.276 38.2767 610.229 45.134 608.394C51.9914 606.558 59.0382 610.629 60.8736 617.487C61.9494 621.506 60.9962 625.59 58.6423 628.652L63.9327 641.397C64.1692 641.967 64.0586 642.622 63.648 643.083C63.2375 643.543 62.5996 643.728 62.0065 643.558L53.9268 641.244L48.0832 647.285C47.6542 647.728 47.0092 647.887 46.4235 647.693C45.8378 647.499 45.4149 646.987 45.3352 646.375L43.5536 632.692ZM39.1452 623.302C37.7686 618.159 40.8219 612.874 45.9649 611.498C51.1079 610.121 56.393 613.174 57.7696 618.317C58.6343 621.548 57.7511 624.835 55.7 627.173C55.6237 627.243 55.5549 627.319 55.4942 627.401C54.3048 628.673 52.7562 629.639 50.9499 630.122C45.8069 631.499 40.5217 628.445 39.1452 623.302ZM56.176 631.092C54.8983 632.052 53.419 632.788 51.7807 633.226C50.143 633.665 48.4945 633.766 46.9088 633.573L48.0913 642.655L52.2876 638.317C52.7002 637.891 53.3142 637.726 53.8847 637.89L59.6873 639.551L56.176 631.092Z" fill="#EEEA81" fill-opacity="0.5"/>
<path fill-rule="evenodd" clip-rule="evenodd" d="M206.118 450.839C206.892 453.732 205.564 456.692 203.071 458.098L208.085 476.831C211.125 475.643 213.69 473.452 215.338 470.598C216.987 467.745 217.603 464.429 217.115 461.201L214.097 462.009C213.24 462.239 212.359 461.73 212.13 460.873C211.9 460.015 212.409 459.135 213.266 458.905L217.923 457.659C218.78 457.429 219.661 457.938 219.89 458.795C221.102 463.323 220.466 468.147 218.121 472.206C215.776 476.265 211.915 479.225 207.387 480.437C202.859 481.649 198.035 481.013 193.977 478.668C189.918 476.323 186.957 472.463 185.745 467.935C185.635 467.523 185.693 467.084 185.906 466.716C186.119 466.347 186.47 466.077 186.882 465.967L191.538 464.721C192.395 464.492 193.276 465 193.505 465.858C193.735 466.715 193.226 467.596 192.369 467.825L189.351 468.633C190.54 471.673 192.731 474.237 195.584 475.886C198.438 477.534 201.754 478.151 204.981 477.662L199.967 458.929C197.105 458.956 194.476 457.055 193.702 454.162C192.784 450.734 194.819 447.21 198.248 446.293C201.677 445.375 205.2 447.41 206.118 450.839ZM199.079 449.397C197.365 449.856 196.347 451.617 196.806 453.332C197.264 455.046 199.026 456.064 200.741 455.605C202.455 455.146 203.473 453.384 203.014 451.67C202.555 449.956 200.793 448.938 199.079 449.397Z" fill="#0077DF" fill-opacity="0.25"/>
<path fill-rule="evenodd" clip-rule="evenodd" d="M1070.42 162.515C1070.85 162.717 1071.17 163.097 1071.29 163.553L1076.69 183.729C1077.61 187.158 1075.57 190.681 1072.14 191.599C1068.72 192.517 1065.19 190.481 1064.27 187.053C1063.36 183.624 1065.39 180.1 1068.82 179.183C1069.95 178.88 1071.09 178.899 1072.15 179.182L1068.68 166.216L1053.85 172.957L1058.9 191.818C1059.82 195.247 1057.78 198.77 1054.35 199.688C1050.92 200.606 1047.4 198.57 1046.48 195.142C1045.56 191.713 1047.6 188.19 1051.03 187.272C1052.16 186.969 1053.3 186.988 1054.35 187.272L1050.39 172.473C1050.19 171.714 1050.57 170.92 1051.28 170.595L1069.07 162.506C1069.5 162.31 1070 162.314 1070.42 162.515ZM1073.59 184.56C1073.13 182.846 1071.37 181.828 1069.65 182.287C1067.94 182.746 1066.92 184.507 1067.38 186.222C1067.84 187.936 1069.6 188.954 1071.31 188.495C1073.03 188.036 1074.05 186.274 1073.59 184.56ZM1051.86 190.376C1053.57 189.917 1055.33 190.935 1055.79 192.649C1056.25 194.363 1055.23 196.125 1053.52 196.584C1051.81 197.043 1050.04 196.025 1049.59 194.311C1049.13 192.596 1050.14 190.835 1051.86 190.376Z" fill="#FBA86B" fill-opacity="0.25"/>
<path fill-rule="evenodd" clip-rule="evenodd" d="M992.641 534.824C993.08 535.078 993.355 535.508 993.425 535.974C993.445 536.105 993.449 536.238 993.436 536.371L990.883 570.284C990.834 570.941 990.388 571.501 989.759 571.697C989.13 571.893 988.446 571.686 988.031 571.173L978.473 559.347L963.453 556.974C962.803 556.872 962.281 556.382 962.136 555.739C961.992 555.097 962.255 554.431 962.799 554.06L990.903 534.907C991.012 534.829 991.13 534.766 991.254 534.718C991.345 534.682 991.439 534.655 991.534 534.637C991.9 534.567 992.292 534.623 992.641 534.824ZM986.924 541.508L967.958 554.433L978.495 556.098L986.924 541.508ZM981.277 557.705L989.706 543.115L987.983 566.002L981.277 557.705Z" fill="#FBA86B" fill-opacity="0.25"/>
<path d="M779.503 859.662C780.049 858.967 781.054 858.844 781.752 859.386L781.762 859.393C781.774 859.402 781.797 859.42 781.831 859.443C781.899 859.491 782.008 859.564 782.154 859.652C782.446 859.83 782.876 860.061 783.408 860.266C784.478 860.677 785.877 860.95 787.39 860.545C788.902 860.14 789.979 859.205 790.7 858.314C791.058 857.871 791.315 857.456 791.48 857.156C791.562 857.007 791.62 856.889 791.655 856.814C791.672 856.776 791.684 856.75 791.69 856.736L791.695 856.725C792.028 855.907 792.961 855.511 793.781 855.84C794.605 856.171 795.004 857.107 794.673 857.93L793.182 857.331C794.673 857.93 794.674 857.93 794.673 857.93L794.672 857.933L794.671 857.936L794.668 857.942L794.661 857.96L794.639 858.011C794.622 858.052 794.597 858.107 794.566 858.173C794.504 858.306 794.415 858.487 794.296 858.704C794.059 859.135 793.699 859.717 793.198 860.336C792.2 861.568 790.588 863.015 788.221 863.649C785.853 864.283 783.733 863.834 782.254 863.265C781.51 862.979 780.908 862.655 780.487 862.4C780.276 862.272 780.108 862.159 779.988 862.075C779.928 862.033 779.879 861.998 779.844 861.971L779.799 861.938L779.784 861.926L779.778 861.922L779.776 861.92C779.775 861.919 779.774 861.918 780.766 860.655L779.774 861.918C779.076 861.37 778.955 860.36 779.503 859.662Z" fill="#EEEA81" fill-opacity="0.5"/>
<path d="M778.689 852.895C778.46 852.037 778.968 851.156 779.826 850.927L779.841 850.923C780.698 850.693 781.579 851.202 781.809 852.06C782.038 852.917 781.529 853.798 780.672 854.027L780.656 854.031C779.799 854.261 778.918 853.752 778.689 852.895Z" fill="#EEEA81" fill-opacity="0.5"/>
<path d="M789.138 848.435C788.281 848.664 787.772 849.545 788.001 850.402C788.231 851.259 789.112 851.768 789.969 851.539L789.984 851.534C790.841 851.305 791.35 850.424 791.121 849.567C790.891 848.71 790.011 848.201 789.153 848.43L789.138 848.435Z" fill="#EEEA81" fill-opacity="0.5"/>
<path fill-rule="evenodd" clip-rule="evenodd" d="M781.574 838.817C772.145 841.34 766.547 851.03 769.071 860.459C771.595 869.887 781.284 875.485 790.713 872.961C800.142 870.438 805.739 860.748 803.216 851.319C800.692 841.891 791.003 836.293 781.574 838.817ZM772.175 859.628C770.11 851.913 774.69 843.986 782.405 841.921C790.119 839.856 798.047 844.436 800.112 852.15C802.177 859.865 797.597 867.792 789.882 869.857C782.168 871.922 774.24 867.342 772.175 859.628Z" fill="#EEEA81" fill-opacity="0.5"/>
<path d="M1184.37 767.236C1185.23 767.007 1186.11 767.516 1186.34 768.373L1187.17 771.477C1187.4 772.334 1186.89 773.215 1186.03 773.445C1185.17 773.674 1184.29 773.165 1184.06 772.308L1183.23 769.204C1183 768.347 1183.51 767.466 1184.37 767.236Z" fill="#EEEA81" fill-opacity="0.5"/>
<path fill-rule="evenodd" clip-rule="evenodd" d="M1180.04 788.353C1178.67 783.21 1181.72 777.925 1186.86 776.549C1192.01 775.172 1197.29 778.225 1198.67 783.368C1200.04 788.511 1196.99 793.796 1191.85 795.173C1186.7 796.55 1181.42 793.496 1180.04 788.353ZM1187.69 779.653C1184.26 780.57 1182.23 784.094 1183.15 787.523C1184.06 790.951 1187.59 792.987 1191.02 792.069C1194.45 791.151 1196.48 787.628 1195.56 784.199C1194.65 780.771 1191.12 778.735 1187.69 779.653Z" fill="#EEEA81" fill-opacity="0.5"/>
<path d="M1194.65 799.414C1194.42 798.557 1193.54 798.048 1192.68 798.277C1191.82 798.507 1191.31 799.387 1191.54 800.245L1192.37 803.349C1192.6 804.206 1193.48 804.715 1194.34 804.485C1195.2 804.256 1195.71 803.375 1195.48 802.518L1194.65 799.414Z" fill="#EEEA81" fill-opacity="0.5"/>
<path d="M1172.66 776.214C1173.1 775.446 1174.08 775.183 1174.85 775.627L1177.65 777.241C1178.41 777.685 1178.68 778.667 1178.23 779.436C1177.79 780.204 1176.81 780.467 1176.04 780.023L1173.24 778.409C1172.48 777.965 1172.21 776.983 1172.66 776.214Z" fill="#EEEA81" fill-opacity="0.5"/>
<path d="M1202.67 791.698C1201.9 791.255 1200.92 791.518 1200.48 792.286C1200.03 793.054 1200.3 794.037 1201.06 794.481L1203.86 796.095C1204.63 796.539 1205.61 796.276 1206.05 795.507C1206.5 794.739 1206.23 793.756 1205.47 793.312L1202.67 791.698Z" fill="#EEEA81" fill-opacity="0.5"/>
<path d="M1170.73 790.846C1170.5 789.989 1171.01 789.108 1171.87 788.878L1174.97 788.048C1175.83 787.818 1176.71 788.327 1176.94 789.184C1177.17 790.041 1176.66 790.922 1175.8 791.152L1172.7 791.982C1171.84 792.212 1170.96 791.703 1170.73 790.846Z" fill="#EEEA81" fill-opacity="0.5"/>
<path d="M1202.91 780.57C1202.05 780.799 1201.54 781.68 1201.77 782.537C1202 783.395 1202.88 783.904 1203.74 783.674L1206.84 782.843C1207.7 782.614 1208.21 781.733 1207.98 780.876C1207.75 780.019 1206.87 779.51 1206.01 779.739L1202.91 780.57Z" fill="#EEEA81" fill-opacity="0.5"/>
<path d="M1182.93 796.983C1183.7 797.426 1183.96 798.409 1183.52 799.178L1181.9 801.971C1181.46 802.74 1180.48 803.003 1179.71 802.559C1178.94 802.115 1178.68 801.132 1179.12 800.364L1180.73 797.57C1181.18 796.802 1182.16 796.539 1182.93 796.983Z" fill="#EEEA81" fill-opacity="0.5"/>
<path d="M1199.59 771.358C1200.03 770.589 1199.77 769.607 1199 769.163C1198.23 768.719 1197.25 768.982 1196.81 769.75L1195.19 772.544C1194.75 773.312 1195.01 774.295 1195.78 774.739C1196.55 775.183 1197.53 774.92 1197.97 774.151L1199.59 771.358Z" fill="#EEEA81" fill-opacity="0.5"/>
<path fill-rule="evenodd" clip-rule="evenodd" d="M365.911 719.223C365.298 719.387 364.838 719.897 364.739 720.524L362.433 735.123L358.785 736.099C357.551 736.43 356.498 737.237 355.858 738.344C355.219 739.451 355.045 740.767 355.376 742.001L358.284 752.866C358.614 754.101 359.422 755.154 360.529 755.793C361.635 756.433 362.951 756.606 364.186 756.276L386.341 750.346C387.463 750.056 388.444 749.372 389.103 748.419C389.764 747.463 390.057 746.3 389.928 745.145L388.331 730.603C388.254 729.908 388.027 729.239 387.665 728.641C387.303 728.043 386.816 727.531 386.237 727.14C385.657 726.75 385 726.489 384.31 726.378C383.624 726.267 382.922 726.306 382.252 726.492L375.027 728.425L373.781 723.769C373.34 722.123 372.263 720.719 370.787 719.866C369.312 719.014 367.557 718.782 365.911 719.223ZM367.724 722.221L365.497 736.319L369.563 751.51L385.536 747.235C385.911 747.139 386.239 746.91 386.46 746.592C386.68 746.273 386.778 745.885 386.735 745.5L385.138 730.958C385.112 730.727 385.036 730.504 384.915 730.304C384.795 730.105 384.632 729.935 384.439 729.804C384.246 729.674 384.027 729.587 383.797 729.55C383.567 729.513 383.332 729.526 383.108 729.589L383.09 729.594L374.306 731.945C373.449 732.174 372.568 731.666 372.338 730.808L370.677 724.6C370.456 723.777 369.918 723.075 369.18 722.649C368.732 722.39 368.232 722.245 367.724 722.221ZM362.72 738.372L366.459 752.341L363.355 753.171C362.943 753.282 362.505 753.224 362.136 753.011C361.767 752.797 361.498 752.446 361.388 752.035L358.48 741.171C358.37 740.759 358.427 740.32 358.641 739.952C358.854 739.583 359.205 739.313 359.616 739.203L362.72 738.372Z" fill="#0077DF" fill-opacity="0.25"/>
<path fill-rule="evenodd" clip-rule="evenodd" d="M1035.79 1150.69C1034.93 1150.92 1034.42 1151.8 1034.65 1152.66L1040.05 1172.84C1040.28 1173.69 1041.16 1174.2 1042.02 1173.97L1044.1 1173.42C1043.95 1174.21 1043.97 1175.05 1044.2 1175.89C1045 1178.89 1048.08 1180.67 1051.08 1179.86C1054.08 1179.06 1055.86 1175.98 1055.06 1172.98C1054.84 1172.14 1054.44 1171.41 1053.91 1170.79L1064.27 1168.02C1064.13 1168.81 1064.15 1169.65 1064.37 1170.48C1065.18 1173.48 1068.26 1175.27 1071.26 1174.46C1074.26 1173.66 1076.04 1170.58 1075.24 1167.58C1075.01 1166.74 1074.61 1166 1074.09 1165.39L1076.17 1164.83C1077.02 1164.6 1077.53 1163.72 1077.3 1162.87L1075.23 1155.11C1075.11 1154.69 1074.85 1154.34 1074.48 1154.13L1068.57 1150.72C1068.21 1150.51 1067.77 1150.45 1067.36 1150.56L1062.7 1151.81L1061.04 1145.6C1060.81 1144.74 1059.93 1144.23 1059.07 1144.46L1035.79 1150.69ZM1073.78 1162.14L1072.29 1156.58L1067.54 1153.84L1063.53 1154.91L1066.02 1164.22L1073.78 1162.14ZM1069.18 1166.7C1067.9 1167.05 1067.13 1168.37 1067.48 1169.65C1067.82 1170.94 1069.14 1171.7 1070.43 1171.36C1071.71 1171.01 1072.48 1169.69 1072.13 1168.41C1071.79 1167.12 1070.47 1166.36 1069.18 1166.7ZM1047.3 1175.05C1046.96 1173.77 1047.72 1172.45 1049 1172.1C1050.29 1171.76 1051.61 1172.52 1051.96 1173.81C1052.3 1175.09 1051.54 1176.42 1050.25 1176.76C1048.97 1177.1 1047.64 1176.34 1047.3 1175.05ZM1062.92 1165.05L1042.74 1170.45L1038.17 1153.38L1058.35 1147.98L1062.92 1165.05Z" fill="#0077DF" fill-opacity="0.25"/>
<path fill-rule="evenodd" clip-rule="evenodd" d="M37.9329 1148.43C37.8354 1147.72 37.2837 1147.16 36.5783 1147.06C35.8728 1146.95 35.1825 1147.32 34.8831 1147.97L24.3478 1170.75C24.0861 1171.31 24.1753 1171.98 24.5767 1172.46C24.9781 1172.93 25.6192 1173.14 26.2214 1172.98L38.4316 1169.71L39.954 1180.74C40.0516 1181.44 40.6032 1182 41.3087 1182.11C42.0141 1182.21 42.7044 1181.84 43.0039 1181.19L53.5392 1158.41C53.8009 1157.85 53.7116 1157.18 53.3102 1156.7C52.9088 1156.23 52.2677 1156.02 51.6655 1156.19L39.4553 1159.45L37.9329 1148.43ZM39.3589 1166.13L28.7042 1168.98L35.4991 1154.29L36.5211 1161.7C36.5841 1162.15 36.8401 1162.56 37.224 1162.82C37.608 1163.07 38.0829 1163.15 38.5281 1163.03L49.1827 1160.18L42.3878 1174.87L41.3659 1167.46C41.3029 1167.01 41.0469 1166.6 40.6629 1166.35C40.279 1166.09 39.8041 1166.01 39.3589 1166.13Z" fill="#EEEA81" fill-opacity="0.5"/>
<path fill-rule="evenodd" clip-rule="evenodd" d="M541.702 1240.92C538.122 1238.85 533.544 1240.07 531.476 1243.65C529.408 1247.23 530.633 1251.81 534.213 1253.88L535.747 1254.77C535.772 1254.78 535.796 1254.8 535.821 1254.81L550.102 1263.06L558.352 1248.78C558.365 1248.75 558.379 1248.73 558.393 1248.7L559.28 1247.17C561.348 1243.59 560.122 1239.01 556.543 1236.94C552.963 1234.88 548.385 1236.1 546.317 1239.68L545.43 1241.22C544.987 1241.98 544.004 1242.25 543.236 1241.8L541.702 1240.92ZM561.219 1250.24C561.206 1250.26 561.192 1250.29 561.178 1250.31L552.082 1266.06C551.868 1266.43 551.517 1266.7 551.105 1266.81C551.105 1266.81 551.106 1266.81 551.105 1266.81C551.105 1266.81 551.103 1266.81 551.103 1266.81C550.691 1266.92 550.253 1266.86 549.883 1266.65L534.138 1257.55C534.113 1257.54 534.088 1257.52 534.064 1257.5L532.605 1256.66C527.489 1253.71 525.738 1247.16 528.693 1242.05C531.649 1236.93 538.193 1235.18 543.309 1238.13L543.452 1238.22L543.534 1238.07C546.49 1232.96 553.034 1231.21 558.15 1234.16C563.266 1237.12 565.018 1243.66 562.062 1248.78L561.219 1250.24Z" fill="#F1AAB5" fill-opacity="0.25"/>
<path fill-rule="evenodd" clip-rule="evenodd" d="M549.206 1206.18C549.157 1206.52 548.913 1206.79 548.584 1206.89C547.385 1207.23 546.347 1207.98 545.659 1209.02C544.971 1210.06 544.679 1211.31 544.836 1212.55C544.993 1213.79 545.589 1214.93 546.515 1215.76C547.441 1216.6 548.635 1217.07 549.881 1217.1C550.223 1217.11 550.528 1217.31 550.661 1217.63C550.794 1217.94 550.729 1218.31 550.496 1218.56C549.372 1219.76 547.928 1220.62 546.333 1221.03C544.738 1221.45 543.059 1221.4 541.492 1220.89C539.924 1220.38 538.533 1219.44 537.482 1218.17C536.43 1216.91 535.761 1215.36 535.554 1213.73C535.346 1212.1 535.608 1210.44 536.309 1208.95C537.01 1207.46 538.121 1206.2 539.512 1205.31C540.903 1204.43 542.517 1203.96 544.164 1203.97C545.812 1203.97 547.424 1204.44 548.814 1205.32C549.102 1205.51 549.256 1205.84 549.206 1206.18ZM546.286 1206.03C545.603 1205.81 544.887 1205.7 544.163 1205.7C542.845 1205.7 541.554 1206.07 540.441 1206.78C539.328 1207.48 538.439 1208.49 537.879 1209.68C537.318 1210.88 537.108 1212.2 537.274 1213.51C537.44 1214.82 537.975 1216.05 538.817 1217.07C539.658 1218.08 540.771 1218.83 542.025 1219.24C543.279 1219.64 544.622 1219.68 545.898 1219.35C546.599 1219.17 547.264 1218.88 547.87 1218.5C546.945 1218.2 546.086 1217.71 545.354 1217.05C544.119 1215.94 543.325 1214.42 543.116 1212.77C542.906 1211.12 543.295 1209.45 544.212 1208.07C544.757 1207.24 545.465 1206.55 546.286 1206.03Z" fill="#EEEA81" fill-opacity="0.5"/>
<path fill-rule="evenodd" clip-rule="evenodd" d="M406.307 1137.27C402.142 1134.05 396.15 1134.81 392.924 1138.98C389.698 1143.14 390.459 1149.13 394.624 1152.36C398.79 1155.58 404.782 1154.82 408.008 1150.66C411.234 1146.49 410.473 1140.5 406.307 1137.27ZM403.845 1137.78C404.332 1138.01 404.801 1138.3 405.245 1138.65C406.752 1139.81 407.714 1141.42 408.091 1143.15C406.504 1143.38 404.964 1143.27 403.379 1142.84C403.627 1141.28 403.763 1139.66 403.845 1137.78ZM402.133 1137.19C399.855 1136.69 397.428 1137.24 395.573 1138.73C397.816 1140.34 399.814 1141.53 401.71 1142.28C401.937 1140.76 402.06 1139.13 402.133 1137.19ZM394.338 1139.98C394.324 1140 394.309 1140.02 394.295 1140.04C393.121 1141.55 392.592 1143.36 392.667 1145.14C395.912 1144.25 398.554 1144.25 400.845 1145L400.846 1145C400.946 1145.03 401.045 1145.07 401.145 1145.1C401.193 1144.92 401.238 1144.73 401.282 1144.54C401.322 1144.37 401.361 1144.2 401.398 1144.02C399.141 1143.17 396.842 1141.79 394.338 1139.98ZM392.934 1146.87C393.364 1148.45 394.292 1149.91 395.686 1150.99C396.542 1151.65 397.491 1152.11 398.476 1152.37C399.439 1150.2 400.145 1148.42 400.665 1146.78C400.544 1146.73 400.424 1146.69 400.304 1146.65C398.381 1146.02 396.042 1145.99 392.934 1146.87ZM400.26 1152.62C402.206 1152.67 404.15 1151.99 405.659 1150.65C404.558 1149.3 403.382 1148.27 402.234 1147.56C401.735 1149.09 401.091 1150.72 400.26 1152.62ZM406.828 1149.34C407.789 1147.99 408.261 1146.43 408.271 1144.87C406.486 1145.12 404.773 1145 403.058 1144.55C403.03 1144.68 403.001 1144.81 402.971 1144.94C402.9 1145.24 402.824 1145.54 402.743 1145.85C404.148 1146.65 405.549 1147.82 406.828 1149.34Z" fill="#FBA86B" fill-opacity="0.25"/>
<path fill-rule="evenodd" clip-rule="evenodd" d="M151.257 945.922C150.725 943.906 151.104 941.674 152.479 939.898C154.826 936.868 159.184 936.314 162.213 938.661C165.242 941.007 165.796 945.365 163.45 948.394C162.075 950.17 160.009 951.095 157.924 951.084L154.177 957.522C154.009 957.81 153.692 957.977 153.36 957.951C153.028 957.925 152.74 957.711 152.619 957.401L150.973 953.174L146.468 952.637C146.137 952.597 145.858 952.372 145.75 952.057C145.642 951.742 145.724 951.393 145.961 951.159L151.257 945.922ZM153.851 940.96C155.61 938.688 158.879 938.272 161.151 940.032C163.423 941.792 163.838 945.06 162.079 947.332C160.973 948.76 159.273 949.454 157.597 949.337C157.543 949.327 157.487 949.322 157.433 949.323C156.497 949.228 155.576 948.878 154.778 948.26C152.506 946.5 152.091 943.232 153.851 940.96ZM156.069 950.822C155.24 950.587 154.44 950.192 153.716 949.631C152.993 949.071 152.41 948.396 151.975 947.652L148.46 951.127L151.695 951.513C152.013 951.551 152.284 951.761 152.4 952.059L153.582 955.095L156.069 950.822Z" fill="#EEEA81" fill-opacity="0.5"/>
<path fill-rule="evenodd" clip-rule="evenodd" d="M282.51 956.338C281.52 957.616 279.815 958.013 278.396 957.401L271.986 965.677C273.49 966.595 275.269 966.981 277.034 966.757C278.799 966.532 280.425 965.714 281.652 964.449L280.319 963.417C279.94 963.123 279.871 962.579 280.164 962.2C280.457 961.821 281.002 961.752 281.381 962.045L283.438 963.638C283.816 963.932 283.886 964.476 283.592 964.855C282.043 966.855 279.763 968.158 277.253 968.477C274.743 968.796 272.209 968.105 270.209 966.556C268.208 965.007 266.905 962.726 266.586 960.216C266.267 957.706 266.959 955.172 268.508 953.172C268.649 952.99 268.856 952.872 269.084 952.843C269.312 952.814 269.543 952.877 269.725 953.017L271.782 954.611C272.16 954.904 272.23 955.449 271.936 955.827C271.643 956.206 271.098 956.275 270.72 955.982L269.386 954.949C268.469 956.454 268.083 958.233 268.307 959.997C268.531 961.762 269.35 963.388 270.615 964.615L277.025 956.339C276.077 955.119 276.035 953.368 277.025 952.09C278.198 950.575 280.377 950.298 281.892 951.471C283.406 952.645 283.683 954.823 282.51 956.338ZM280.83 952.843C280.072 952.256 278.983 952.395 278.396 953.152C277.81 953.909 277.948 954.999 278.705 955.585C279.463 956.172 280.552 956.033 281.139 955.276C281.725 954.519 281.587 953.429 280.83 952.843Z" fill="#0077DF" fill-opacity="0.25"/>
<path fill-rule="evenodd" clip-rule="evenodd" d="M688.824 1233.45C688.877 1233.7 688.818 1233.96 688.661 1234.16L681.758 1243.08C680.585 1244.59 678.406 1244.87 676.891 1243.69C675.376 1242.52 675.099 1240.34 676.273 1238.83C677.446 1237.31 679.625 1237.04 681.139 1238.21C681.639 1238.6 682.004 1239.09 682.226 1239.64L686.663 1233.91L678.922 1229.74L672.468 1238.07C671.295 1239.59 669.116 1239.87 667.601 1238.69C666.086 1237.52 665.809 1235.34 666.983 1233.83C668.156 1232.31 670.335 1232.03 671.849 1233.21C672.349 1233.59 672.714 1234.09 672.937 1234.64L678 1228.1C678.26 1227.76 678.724 1227.67 679.097 1227.87L688.387 1232.87C688.611 1232.99 688.771 1233.2 688.824 1233.45ZM680.386 1242.01C680.973 1241.26 680.835 1240.17 680.077 1239.58C679.32 1238.99 678.23 1239.13 677.644 1239.89C677.057 1240.65 677.196 1241.74 677.953 1242.32C678.71 1242.91 679.8 1242.77 680.386 1242.01ZM670.787 1234.58C671.545 1235.17 671.683 1236.26 671.096 1237.01C670.51 1237.77 669.42 1237.91 668.663 1237.32C667.906 1236.74 667.767 1235.65 668.354 1234.89C668.94 1234.13 670.03 1233.99 670.787 1234.58Z" fill="#FBA86B" fill-opacity="0.25"/>
<path fill-rule="evenodd" clip-rule="evenodd" d="M503.45 1321.7C503.485 1321.97 503.39 1322.23 503.213 1322.41C503.163 1322.46 503.107 1322.51 503.046 1322.54L487.641 1332.53C487.343 1332.72 486.957 1332.72 486.667 1332.51C486.377 1332.3 486.242 1331.94 486.327 1331.6L488.285 1323.62L484.396 1316.4C484.227 1316.08 484.267 1315.7 484.496 1315.43C484.725 1315.15 485.097 1315.05 485.434 1315.16L502.847 1320.98C502.916 1321 502.982 1321.03 503.043 1321.07C503.088 1321.09 503.13 1321.13 503.169 1321.16C503.319 1321.3 503.423 1321.48 503.45 1321.7ZM498.711 1321.43L486.96 1317.5L489.688 1322.57L498.711 1321.43ZM489.907 1324.29L498.929 1323.15L488.533 1329.88L489.907 1324.29Z" fill="#FBA86B" fill-opacity="0.25"/>
<path d="M294.24 1336.28C294.717 1336.29 295.099 1336.68 295.094 1337.15L295.094 1337.16C295.094 1337.17 295.094 1337.19 295.095 1337.21C295.097 1337.25 295.101 1337.32 295.11 1337.41C295.13 1337.6 295.171 1337.86 295.257 1338.15C295.429 1338.75 295.77 1339.44 296.438 1339.96C297.106 1340.47 297.86 1340.63 298.478 1340.65C298.786 1340.66 299.048 1340.63 299.231 1340.61C299.321 1340.59 299.391 1340.58 299.435 1340.57C299.456 1340.56 299.472 1340.56 299.48 1340.56L299.486 1340.56C299.947 1340.43 300.421 1340.7 300.548 1341.16C300.675 1341.63 300.403 1342.1 299.942 1342.23L299.712 1341.39C299.942 1342.23 299.942 1342.23 299.942 1342.23L299.94 1342.23L299.939 1342.23L299.935 1342.23L299.925 1342.24L299.896 1342.24C299.872 1342.25 299.841 1342.26 299.802 1342.26C299.725 1342.28 299.618 1342.3 299.486 1342.32C299.223 1342.36 298.856 1342.4 298.426 1342.38C297.571 1342.36 296.422 1342.14 295.376 1341.33C294.33 1340.52 293.83 1339.46 293.591 1338.64C293.471 1338.23 293.413 1337.86 293.385 1337.6C293.371 1337.46 293.365 1337.35 293.362 1337.28C293.36 1337.24 293.36 1337.2 293.359 1337.18L293.359 1337.15L293.359 1337.14L293.359 1337.14L293.359 1337.13C293.359 1337.13 293.359 1337.13 294.226 1337.15L293.359 1337.13C293.367 1336.65 293.761 1336.27 294.24 1336.28Z" fill="#EEEA81" fill-opacity="0.5"/>
<path d="M296.882 1333.72C297.175 1333.34 297.72 1333.27 298.098 1333.56L298.105 1333.57C298.484 1333.86 298.553 1334.41 298.26 1334.79C297.967 1335.16 297.422 1335.23 297.043 1334.94L297.036 1334.93C296.658 1334.64 296.588 1334.1 296.882 1333.72Z" fill="#EEEA81" fill-opacity="0.5"/>
<path d="M302.212 1336.75C301.834 1336.46 301.289 1336.53 300.996 1336.9C300.702 1337.28 300.771 1337.83 301.15 1338.12L301.157 1338.13C301.536 1338.42 302.08 1338.35 302.374 1337.97C302.667 1337.59 302.598 1337.05 302.219 1336.75L302.212 1336.75Z" fill="#EEEA81" fill-opacity="0.5"/>
<path fill-rule="evenodd" clip-rule="evenodd" d="M303.873 1330.36C299.707 1327.13 293.715 1327.89 290.489 1332.06C287.263 1336.22 288.024 1342.21 292.19 1345.44C296.355 1348.67 302.347 1347.91 305.573 1343.74C308.799 1339.57 308.038 1333.58 303.873 1330.36ZM291.86 1333.12C294.5 1329.71 299.402 1329.09 302.811 1331.73C306.219 1334.37 306.842 1339.27 304.202 1342.68C301.562 1346.09 296.66 1346.71 293.252 1344.07C289.844 1341.43 289.221 1336.53 291.86 1333.12Z" fill="#EEEA81" fill-opacity="0.5"/>
<path d="M466.253 1480.02C466.631 1480.31 466.701 1480.86 466.407 1481.24L465.345 1482.61C465.052 1482.99 464.507 1483.05 464.129 1482.76C463.75 1482.47 463.681 1481.92 463.974 1481.54L465.036 1480.17C465.329 1479.79 465.874 1479.73 466.253 1480.02Z" fill="#EEEA81" fill-opacity="0.5"/>
<path fill-rule="evenodd" clip-rule="evenodd" d="M455.766 1485.06C457.526 1482.79 460.794 1482.37 463.066 1484.13C465.339 1485.89 465.754 1489.16 463.994 1491.43C462.234 1493.7 458.966 1494.12 456.694 1492.36C454.422 1490.6 454.006 1487.33 455.766 1485.06ZM462.004 1485.5C460.49 1484.33 458.311 1484.61 457.138 1486.12C455.964 1487.64 456.241 1489.82 457.756 1490.99C459.271 1492.16 461.45 1491.89 462.623 1490.37C463.796 1488.86 463.519 1486.68 462.004 1485.5Z" fill="#EEEA81" fill-opacity="0.5"/>
<path d="M455.786 1494.95C456.08 1494.57 456.01 1494.03 455.632 1493.73C455.253 1493.44 454.708 1493.51 454.415 1493.89L453.353 1495.26C453.06 1495.64 453.129 1496.18 453.508 1496.47C453.886 1496.77 454.431 1496.7 454.724 1496.32L455.786 1494.95Z" fill="#EEEA81" fill-opacity="0.5"/>
<path d="M458.568 1477.92C459.043 1477.86 459.477 1478.2 459.538 1478.67L459.757 1480.4C459.818 1480.87 459.481 1481.31 459.006 1481.37C458.531 1481.43 458.097 1481.09 458.037 1480.62L457.817 1478.89C457.757 1478.41 458.093 1477.98 458.568 1477.92Z" fill="#EEEA81" fill-opacity="0.5"/>
<path d="M461.724 1495.88C461.663 1495.4 461.229 1495.06 460.754 1495.12C460.279 1495.18 459.943 1495.62 460.003 1496.09L460.223 1497.82C460.283 1498.3 460.717 1498.63 461.192 1498.57C461.668 1498.51 462.004 1498.08 461.943 1497.6L461.724 1495.88Z" fill="#EEEA81" fill-opacity="0.5"/>
<path d="M451.652 1481.87C451.946 1481.5 452.49 1481.43 452.869 1481.72L454.24 1482.78C454.619 1483.07 454.688 1483.62 454.395 1484C454.102 1484.38 453.557 1484.45 453.178 1484.15L451.807 1483.09C451.428 1482.8 451.359 1482.25 451.652 1481.87Z" fill="#EEEA81" fill-opacity="0.5"/>
<path d="M466.582 1492.34C466.203 1492.05 465.659 1492.12 465.365 1492.49C465.072 1492.87 465.141 1493.42 465.52 1493.71L466.891 1494.77C467.27 1495.07 467.815 1495 468.108 1494.62C468.401 1494.24 468.332 1493.7 467.953 1493.4L466.582 1492.34Z" fill="#EEEA81" fill-opacity="0.5"/>
<path d="M453.002 1489.12C453.063 1489.6 452.726 1490.03 452.251 1490.09L450.524 1490.31C450.048 1490.37 449.614 1490.03 449.554 1489.56C449.493 1489.08 449.83 1488.65 450.305 1488.59L452.033 1488.37C452.508 1488.31 452.942 1488.65 453.002 1489.12Z" fill="#EEEA81" fill-opacity="0.5"/>
<path d="M469.456 1487.9C469.931 1487.84 470.267 1487.41 470.207 1486.93C470.146 1486.46 469.712 1486.12 469.237 1486.18L467.509 1486.4C467.034 1486.46 466.698 1486.9 466.758 1487.37C466.819 1487.85 467.253 1488.18 467.728 1488.12L469.456 1487.9Z" fill="#EEEA81" fill-opacity="0.5"/>
<path fill-rule="evenodd" clip-rule="evenodd" d="M219.422 1112.69C219.151 1112.48 218.782 1112.45 218.48 1112.62L211.454 1116.4L209.843 1115.15C209.297 1114.72 208.606 1114.54 207.922 1114.62C207.237 1114.71 206.615 1115.07 206.193 1115.61L202.475 1120.41C202.053 1120.96 201.864 1121.65 201.951 1122.33C202.038 1123.02 202.394 1123.64 202.939 1124.06L212.727 1131.64C213.218 1132.03 213.832 1132.23 214.457 1132.2C215.084 1132.17 215.679 1131.92 216.133 1131.48L221.859 1126.04C222.132 1125.78 222.346 1125.47 222.484 1125.12C222.623 1124.77 222.684 1124.39 222.662 1124.01C222.641 1123.64 222.538 1123.27 222.36 1122.94C222.184 1122.61 221.938 1122.32 221.639 1122.09L218.447 1119.62L220.04 1117.56C220.604 1116.83 220.855 1115.91 220.739 1115C220.623 1114.09 220.149 1113.26 219.422 1112.69ZM218.726 1114.45L211.942 1118.1L206.744 1124.81L213.8 1130.28C213.964 1130.41 214.169 1130.48 214.378 1130.47C214.587 1130.46 214.786 1130.37 214.937 1130.23L220.663 1124.79C220.754 1124.7 220.825 1124.6 220.871 1124.48C220.917 1124.36 220.938 1124.24 220.931 1124.11C220.923 1123.99 220.889 1123.86 220.83 1123.75C220.771 1123.64 220.688 1123.55 220.588 1123.47L220.58 1123.46L216.699 1120.46C216.321 1120.16 216.251 1119.62 216.545 1119.24L218.669 1116.5C218.951 1116.13 219.076 1115.67 219.018 1115.22C218.983 1114.94 218.882 1114.68 218.726 1114.45ZM210.152 1117.58L205.373 1123.75L204.001 1122.69C203.819 1122.55 203.701 1122.34 203.672 1122.11C203.643 1121.88 203.706 1121.65 203.847 1121.47L207.564 1116.67C207.705 1116.49 207.912 1116.37 208.14 1116.34C208.369 1116.31 208.599 1116.38 208.781 1116.52L210.152 1117.58Z" fill="#0077DF" fill-opacity="0.25"/>
<path fill-rule="evenodd" clip-rule="evenodd" d="M252.955 1541.49C252.576 1541.2 252.031 1541.27 251.738 1541.65L244.834 1550.56C244.541 1550.94 244.61 1551.48 244.989 1551.78L245.906 1552.49C245.516 1552.68 245.163 1552.97 244.878 1553.34C243.852 1554.66 244.094 1556.57 245.419 1557.59C246.745 1558.62 248.651 1558.38 249.678 1557.05C249.963 1556.68 250.15 1556.27 250.243 1555.85L254.819 1559.39C254.43 1559.59 254.077 1559.87 253.792 1560.24C252.765 1561.56 253.007 1563.47 254.333 1564.5C255.658 1565.52 257.565 1565.28 258.591 1563.96C258.876 1563.59 259.064 1563.18 259.157 1562.75L260.073 1563.46C260.452 1563.75 260.997 1563.68 261.29 1563.3L263.945 1559.88C264.086 1559.69 264.149 1559.46 264.12 1559.24L263.656 1555.59C263.627 1555.36 263.509 1555.15 263.327 1555.01L261.27 1553.42L263.394 1550.67C263.688 1550.3 263.618 1549.75 263.24 1549.46L252.955 1541.49ZM260.45 1561.56L262.354 1559.1L261.981 1556.16L260.208 1554.79L257.022 1558.9L260.45 1561.56ZM256.988 1561.07C256.42 1560.63 255.603 1560.73 255.163 1561.3C254.723 1561.87 254.827 1562.69 255.395 1563.13C255.963 1563.57 256.78 1563.46 257.22 1562.89C257.66 1562.33 257.556 1561.51 256.988 1561.07ZM246.249 1554.4C246.689 1553.83 247.507 1553.73 248.075 1554.17C248.643 1554.61 248.746 1555.42 248.306 1555.99C247.866 1556.56 247.049 1556.66 246.481 1556.22C245.913 1555.78 245.81 1554.97 246.249 1554.4ZM255.65 1557.84L246.737 1550.94L252.578 1543.39L261.492 1550.3L255.65 1557.84Z" fill="#0077DF" fill-opacity="0.25"/>
<path fill-rule="evenodd" clip-rule="evenodd" d="M52.7318 1358.7C52.4505 1356.49 50.428 1354.92 48.2143 1355.2C46.0006 1355.48 44.4341 1357.5 44.7153 1359.72L44.8359 1360.67C44.8379 1360.68 44.8394 1360.7 44.8405 1360.71L45.9628 1369.55L54.7941 1368.42C54.8095 1368.42 54.825 1368.42 54.8407 1368.42L55.7894 1368.3C58.003 1368.01 59.5696 1365.99 59.2883 1363.78C59.007 1361.56 56.9844 1360 54.7707 1360.28L53.822 1360.4C53.3469 1360.46 52.9128 1360.12 52.8524 1359.65L52.7318 1358.7ZM55.1061 1370.13C55.0907 1370.13 55.0752 1370.14 55.0595 1370.14L45.3223 1371.38C45.0941 1371.4 44.8637 1371.34 44.6818 1371.2C44.6816 1371.2 44.682 1371.2 44.6818 1371.2C44.6816 1371.2 44.6809 1371.2 44.6807 1371.2C44.4988 1371.06 44.3803 1370.85 44.3513 1370.62L43.114 1360.89C43.112 1360.87 43.1104 1360.85 43.1093 1360.84L42.9947 1359.94C42.5926 1356.77 44.8316 1353.88 47.9956 1353.48C51.1596 1353.08 54.0505 1355.32 54.4525 1358.48L54.4637 1358.57L54.5521 1358.56C57.7161 1358.16 60.6069 1360.4 61.009 1363.56C61.411 1366.72 59.172 1369.61 56.008 1370.02L55.1061 1370.13Z" fill="#F1AAB5" fill-opacity="0.25"/>
<path fill-rule="evenodd" clip-rule="evenodd" d="M1356.31 421.275C1352.14 418.048 1346.15 418.81 1342.92 422.975C1339.7 427.141 1340.46 433.133 1344.62 436.359C1348.79 439.585 1354.78 438.824 1358.01 434.658C1361.23 430.493 1360.47 424.501 1356.31 421.275ZM1353.85 421.779C1354.33 422.013 1354.8 422.302 1355.25 422.646C1356.75 423.813 1357.71 425.422 1358.09 427.149C1356.5 427.376 1354.96 427.271 1353.38 426.844C1353.63 425.282 1353.76 423.656 1353.85 421.779ZM1352.13 421.19C1349.86 420.694 1347.43 421.239 1345.57 422.733C1347.82 424.338 1349.81 425.527 1351.71 426.284C1351.94 424.756 1352.06 423.13 1352.13 421.19ZM1344.34 423.982C1344.32 424 1344.31 424.019 1344.3 424.037C1343.12 425.553 1342.59 427.365 1342.67 429.142C1345.91 428.254 1348.55 428.249 1350.85 428.999L1350.85 428.999C1350.95 429.032 1351.05 429.067 1351.15 429.103C1351.19 428.916 1351.24 428.73 1351.28 428.544C1351.32 428.37 1351.36 428.197 1351.4 428.023C1349.14 427.172 1346.84 425.791 1344.34 423.982ZM1342.93 430.868C1343.36 432.449 1344.29 433.908 1345.69 434.988C1346.54 435.65 1347.49 436.107 1348.48 436.366C1349.44 434.197 1350.14 432.416 1350.67 430.776C1350.54 430.729 1350.42 430.686 1350.3 430.647C1348.38 430.017 1346.04 429.989 1342.93 430.868ZM1350.26 436.62C1352.21 436.67 1354.15 435.993 1355.66 434.646C1354.56 433.297 1353.38 432.274 1352.23 431.564C1351.74 433.093 1351.09 434.724 1350.26 436.62ZM1356.83 433.338C1357.79 431.988 1358.26 430.427 1358.27 428.875C1356.49 429.122 1354.77 429 1353.06 428.553C1353.03 428.682 1353 428.81 1352.97 428.938C1352.9 429.241 1352.82 429.544 1352.74 429.849C1354.15 430.647 1355.55 431.817 1356.83 433.338Z" fill="#FBA86B" fill-opacity="0.25"/>
<path fill-rule="evenodd" clip-rule="evenodd" d="M1101.26 229.922C1100.73 227.906 1101.1 225.674 1102.48 223.898C1104.83 220.869 1109.18 220.315 1112.21 222.661C1115.24 225.008 1115.8 229.365 1113.45 232.395C1112.07 234.17 1110.01 235.095 1107.92 235.085L1104.18 241.523C1104.01 241.811 1103.69 241.977 1103.36 241.951C1103.03 241.925 1102.74 241.712 1102.62 241.401L1100.97 237.174L1096.47 236.637C1096.14 236.598 1095.86 236.372 1095.75 236.058C1095.64 235.743 1095.72 235.393 1095.96 235.159L1101.26 229.922ZM1103.85 224.96C1105.61 222.688 1108.88 222.273 1111.15 224.032C1113.42 225.792 1113.84 229.061 1112.08 231.333C1110.97 232.76 1109.27 233.454 1107.6 233.338C1107.54 233.327 1107.49 233.323 1107.43 233.323C1106.5 233.228 1105.58 232.878 1104.78 232.26C1102.51 230.501 1102.09 227.232 1103.85 224.96ZM1106.07 234.823C1105.24 234.587 1104.44 234.192 1103.72 233.632C1102.99 233.071 1102.41 232.396 1101.98 231.652L1098.46 235.128L1101.69 235.513C1102.01 235.551 1102.28 235.761 1102.4 236.06L1103.58 239.096L1106.07 234.823Z" fill="#EEEA81" fill-opacity="0.5"/>
<path fill-rule="evenodd" clip-rule="evenodd" d="M1232.51 240.339C1231.52 241.617 1229.81 242.013 1228.4 241.402L1221.99 249.678C1223.49 250.595 1225.27 250.981 1227.03 250.757C1228.8 250.533 1230.43 249.714 1231.65 248.449L1230.32 247.417C1229.94 247.124 1229.87 246.579 1230.16 246.2C1230.46 245.822 1231 245.752 1231.38 246.046L1233.44 247.639C1233.82 247.932 1233.89 248.477 1233.59 248.855C1232.04 250.856 1229.76 252.159 1227.25 252.478C1224.74 252.797 1222.21 252.105 1220.21 250.556C1218.21 249.007 1216.91 246.726 1216.59 244.216C1216.27 241.707 1216.96 239.173 1218.51 237.172C1218.65 236.991 1218.86 236.872 1219.08 236.843C1219.31 236.814 1219.54 236.877 1219.72 237.018L1221.78 238.611C1222.16 238.904 1222.23 239.449 1221.94 239.828C1221.64 240.206 1221.1 240.276 1220.72 239.982L1219.39 238.95C1218.47 240.454 1218.08 242.233 1218.31 243.998C1218.53 245.763 1219.35 247.389 1220.61 248.616L1227.02 240.34C1226.08 239.119 1226.04 237.368 1227.03 236.09C1228.2 234.575 1230.38 234.299 1231.89 235.472C1233.41 236.645 1233.68 238.824 1232.51 240.339ZM1230.83 236.843C1230.07 236.256 1228.98 236.395 1228.4 237.152C1227.81 237.91 1227.95 238.999 1228.71 239.586C1229.46 240.172 1230.55 240.034 1231.14 239.276C1231.73 238.519 1231.59 237.43 1230.83 236.843Z" fill="#0077DF" fill-opacity="0.25"/>
<path fill-rule="evenodd" clip-rule="evenodd" d="M1453.45 605.698C1453.49 605.97 1453.39 606.228 1453.21 606.411C1453.16 606.462 1453.11 606.507 1453.05 606.545L1437.64 616.531C1437.34 616.724 1436.96 616.716 1436.67 616.51C1436.38 616.303 1436.24 615.941 1436.33 615.596L1438.28 607.625L1434.4 600.397C1434.23 600.083 1434.27 599.699 1434.5 599.427C1434.73 599.155 1435.1 599.05 1435.43 599.163L1452.85 604.978C1452.92 605 1452.98 605.03 1453.04 605.067C1453.09 605.095 1453.13 605.126 1453.17 605.161C1453.32 605.296 1453.42 605.482 1453.45 605.698ZM1448.71 605.426L1436.96 601.501L1439.69 606.572L1448.71 605.426ZM1439.91 608.293L1448.93 607.146L1438.53 613.885L1439.91 608.293Z" fill="#FBA86B" fill-opacity="0.25"/>
<path d="M1244.24 620.279C1244.72 620.287 1245.1 620.678 1245.09 621.155L1245.09 621.162C1245.09 621.17 1245.09 621.186 1245.1 621.208C1245.1 621.253 1245.1 621.323 1245.11 621.415C1245.13 621.598 1245.17 621.859 1245.26 622.154C1245.43 622.748 1245.77 623.439 1246.44 623.956C1247.11 624.474 1247.86 624.631 1248.48 624.649C1248.79 624.659 1249.05 624.633 1249.23 624.606C1249.32 624.592 1249.39 624.579 1249.43 624.569C1249.46 624.564 1249.47 624.561 1249.48 624.559L1249.49 624.557C1249.95 624.433 1250.42 624.704 1250.55 625.165C1250.68 625.627 1250.4 626.104 1249.94 626.231L1249.71 625.395C1249.94 626.231 1249.94 626.231 1249.94 626.231L1249.94 626.231L1249.94 626.232L1249.93 626.233L1249.93 626.235L1249.9 626.243C1249.87 626.249 1249.84 626.256 1249.8 626.264C1249.73 626.281 1249.62 626.302 1249.49 626.322C1249.22 626.361 1248.86 626.396 1248.43 626.383C1247.57 626.357 1246.42 626.138 1245.38 625.327C1244.33 624.517 1243.83 623.46 1243.59 622.638C1243.47 622.226 1243.41 621.861 1243.39 621.597C1243.37 621.464 1243.37 621.355 1243.36 621.276C1243.36 621.236 1243.36 621.204 1243.36 621.18L1243.36 621.15L1243.36 621.14L1243.36 621.136L1243.36 621.134C1243.36 621.134 1243.36 621.133 1244.23 621.146L1243.36 621.133C1243.37 620.654 1243.76 620.272 1244.24 620.279Z" fill="#EEEA81" fill-opacity="0.5"/>
<path d="M1246.88 617.718C1247.18 617.339 1247.72 617.27 1248.1 617.563L1248.11 617.569C1248.48 617.862 1248.55 618.407 1248.26 618.785C1247.97 619.164 1247.42 619.233 1247.04 618.94L1247.04 618.935C1246.66 618.641 1246.59 618.097 1246.88 617.718Z" fill="#EEEA81" fill-opacity="0.5"/>
<path d="M1252.21 620.75C1251.83 620.456 1251.29 620.526 1251 620.904C1250.7 621.283 1250.77 621.828 1251.15 622.121L1251.16 622.126C1251.54 622.42 1252.08 622.35 1252.37 621.972C1252.67 621.593 1252.6 621.048 1252.22 620.755L1252.21 620.75Z" fill="#EEEA81" fill-opacity="0.5"/>
<path fill-rule="evenodd" clip-rule="evenodd" d="M1253.87 614.357C1249.71 611.131 1243.72 611.892 1240.49 616.058C1237.26 620.223 1238.02 626.215 1242.19 629.441C1246.36 632.668 1252.35 631.906 1255.57 627.741C1258.8 623.575 1258.04 617.583 1253.87 614.357ZM1241.86 617.12C1244.5 613.712 1249.4 613.089 1252.81 615.728C1256.22 618.368 1256.84 623.27 1254.2 626.679C1251.56 630.087 1246.66 630.71 1243.25 628.07C1239.84 625.43 1239.22 620.528 1241.86 617.12Z" fill="#EEEA81" fill-opacity="0.5"/>
<path d="M1416.25 764.019C1416.63 764.312 1416.7 764.857 1416.41 765.236L1415.35 766.607C1415.05 766.986 1414.51 767.055 1414.13 766.762C1413.75 766.468 1413.68 765.924 1413.97 765.545L1415.04 764.174C1415.33 763.795 1415.87 763.726 1416.25 764.019Z" fill="#EEEA81" fill-opacity="0.5"/>
<path fill-rule="evenodd" clip-rule="evenodd" d="M1405.77 769.061C1407.53 766.789 1410.79 766.373 1413.07 768.133C1415.34 769.893 1415.75 773.161 1413.99 775.433C1412.23 777.705 1408.97 778.121 1406.69 776.361C1404.42 774.601 1404.01 771.333 1405.77 769.061ZM1412 769.504C1410.49 768.331 1408.31 768.608 1407.14 770.123C1405.96 771.638 1406.24 773.816 1407.76 774.99C1409.27 776.163 1411.45 775.886 1412.62 774.371C1413.8 772.856 1413.52 770.678 1412 769.504Z" fill="#EEEA81" fill-opacity="0.5"/>
<path d="M1405.79 778.949C1406.08 778.57 1406.01 778.026 1405.63 777.732C1405.25 777.439 1404.71 777.508 1404.42 777.887L1403.35 779.258C1403.06 779.637 1403.13 780.182 1403.51 780.475C1403.89 780.768 1404.43 780.699 1404.72 780.32L1405.79 778.949Z" fill="#EEEA81" fill-opacity="0.5"/>
<path d="M1408.57 761.921C1409.04 761.86 1409.48 762.197 1409.54 762.672L1409.76 764.399C1409.82 764.875 1409.48 765.309 1409.01 765.369C1408.53 765.429 1408.1 765.093 1408.04 764.618L1407.82 762.89C1407.76 762.415 1408.09 761.981 1408.57 761.921Z" fill="#EEEA81" fill-opacity="0.5"/>
<path d="M1411.72 779.876C1411.66 779.401 1411.23 779.065 1410.75 779.125C1410.28 779.185 1409.94 779.619 1410 780.095L1410.22 781.822C1410.28 782.297 1410.72 782.634 1411.19 782.573C1411.67 782.513 1412 782.079 1411.94 781.604L1411.72 779.876Z" fill="#EEEA81" fill-opacity="0.5"/>
<path d="M1401.65 765.874C1401.95 765.496 1402.49 765.427 1402.87 765.72L1404.24 766.782C1404.62 767.075 1404.69 767.62 1404.4 767.999C1404.1 768.377 1403.56 768.446 1403.18 768.153L1401.81 767.091C1401.43 766.798 1401.36 766.253 1401.65 765.874Z" fill="#EEEA81" fill-opacity="0.5"/>
<path d="M1416.58 776.341C1416.2 776.048 1415.66 776.117 1415.37 776.495C1415.07 776.874 1415.14 777.419 1415.52 777.712L1416.89 778.774C1417.27 779.067 1417.81 778.998 1418.11 778.62C1418.4 778.241 1418.33 777.696 1417.95 777.403L1416.58 776.341Z" fill="#EEEA81" fill-opacity="0.5"/>
<path d="M1403 773.121C1403.06 773.596 1402.73 774.03 1402.25 774.091L1400.52 774.31C1400.05 774.371 1399.61 774.034 1399.55 773.559C1399.49 773.084 1399.83 772.65 1400.31 772.589L1402.03 772.37C1402.51 772.31 1402.94 772.646 1403 773.121Z" fill="#EEEA81" fill-opacity="0.5"/>
<path d="M1419.46 771.905C1419.93 771.844 1420.27 771.41 1420.21 770.935C1420.15 770.46 1419.71 770.123 1419.24 770.184L1417.51 770.403C1417.03 770.464 1416.7 770.898 1416.76 771.373C1416.82 771.848 1417.25 772.184 1417.73 772.124L1419.46 771.905Z" fill="#EEEA81" fill-opacity="0.5"/>
<path fill-rule="evenodd" clip-rule="evenodd" d="M1169.42 396.694C1169.15 396.484 1168.78 396.454 1168.48 396.616L1161.45 400.396L1159.84 399.148C1159.3 398.725 1158.61 398.537 1157.92 398.624C1157.24 398.71 1156.62 399.066 1156.19 399.611L1152.48 404.411C1152.05 404.956 1151.86 405.648 1151.95 406.332C1152.04 407.017 1152.39 407.639 1152.94 408.061L1162.73 415.642C1163.22 416.029 1163.83 416.227 1164.46 416.199C1165.08 416.17 1165.68 415.916 1166.13 415.484L1171.86 410.045C1172.13 409.785 1172.35 409.469 1172.48 409.118C1172.62 408.767 1172.68 408.39 1172.66 408.014C1172.64 407.637 1172.54 407.27 1172.36 406.937C1172.18 406.606 1171.94 406.317 1171.64 406.09L1168.45 403.618L1170.04 401.561C1170.6 400.833 1170.86 399.912 1170.74 398.999C1170.62 398.087 1170.15 397.257 1169.42 396.694ZM1168.73 398.453L1161.94 402.103L1156.74 408.814L1163.8 414.279C1163.96 414.409 1164.17 414.475 1164.38 414.466C1164.59 414.456 1164.79 414.372 1164.94 414.227L1170.66 408.789C1170.75 408.703 1170.83 408.597 1170.87 408.48C1170.92 408.363 1170.94 408.238 1170.93 408.112C1170.92 407.987 1170.89 407.864 1170.83 407.753C1170.77 407.642 1170.69 407.546 1170.59 407.47L1170.58 407.464L1166.7 404.458C1166.32 404.165 1166.25 403.62 1166.55 403.241L1168.67 400.499C1168.95 400.135 1169.08 399.674 1169.02 399.218C1168.98 398.941 1168.88 398.679 1168.73 398.453ZM1160.15 401.581L1155.37 407.752L1154 406.69C1153.82 406.549 1153.7 406.342 1153.67 406.113C1153.64 405.885 1153.71 405.655 1153.85 405.473L1157.56 400.673C1157.71 400.492 1157.91 400.373 1158.14 400.344C1158.37 400.315 1158.6 400.378 1158.78 400.519L1160.15 401.581Z" fill="#0077DF" fill-opacity="0.25"/>
<path fill-rule="evenodd" clip-rule="evenodd" d="M1202.96 825.492C1202.58 825.198 1202.03 825.267 1201.74 825.646L1194.83 834.56C1194.54 834.938 1194.61 835.483 1194.99 835.776L1195.91 836.486C1195.52 836.683 1195.16 836.968 1194.88 837.336C1193.85 838.661 1194.09 840.568 1195.42 841.594C1196.74 842.621 1198.65 842.379 1199.68 841.053C1199.96 840.685 1200.15 840.272 1200.24 839.846L1204.82 843.39C1204.43 843.587 1204.08 843.872 1203.79 844.24C1202.77 845.565 1203.01 847.472 1204.33 848.498C1205.66 849.525 1207.56 849.282 1208.59 847.957C1208.88 847.589 1209.06 847.176 1209.16 846.75L1210.07 847.459C1210.45 847.753 1211 847.684 1211.29 847.305L1213.95 843.877C1214.09 843.695 1214.15 843.464 1214.12 843.236L1213.66 839.586C1213.63 839.358 1213.51 839.151 1213.33 839.01L1211.27 837.417L1213.39 834.674C1213.69 834.295 1213.62 833.751 1213.24 833.457L1202.96 825.492ZM1210.45 845.557L1212.35 843.099L1211.98 840.161L1210.21 838.788L1207.02 842.902L1210.45 845.557ZM1206.99 845.07C1206.42 844.63 1205.6 844.734 1205.16 845.302C1204.72 845.87 1204.83 846.687 1205.4 847.127C1205.96 847.567 1206.78 847.463 1207.22 846.895C1207.66 846.327 1207.56 845.51 1206.99 845.07ZM1196.25 838.398C1196.69 837.83 1197.51 837.726 1198.07 838.166C1198.64 838.606 1198.75 839.423 1198.31 839.991C1197.87 840.559 1197.05 840.663 1196.48 840.223C1195.91 839.783 1195.81 838.966 1196.25 838.398ZM1205.65 841.84L1196.74 834.936L1202.58 827.394L1211.49 834.298L1205.65 841.84Z" fill="#0077DF" fill-opacity="0.25"/>
<path fill-rule="evenodd" clip-rule="evenodd" d="M877.846 396.041C878.118 395.768 878.177 395.349 877.992 395.011C877.806 394.674 877.421 394.499 877.045 394.582L863.815 397.499C863.487 397.572 863.23 397.828 863.156 398.156C863.082 398.484 863.205 398.826 863.471 399.032L868.865 403.21L864.625 407.468C864.353 407.741 864.294 408.16 864.479 408.497C864.664 408.835 865.05 409.01 865.426 408.927L878.655 406.009C878.984 405.937 879.241 405.681 879.314 405.352C879.388 405.024 879.265 404.683 878.999 404.477L873.605 400.299L877.846 396.041ZM870.704 402.44L865.997 398.794L874.529 396.913L871.683 399.771C871.507 399.947 871.416 400.19 871.432 400.439C871.448 400.687 871.57 400.916 871.766 401.069L876.473 404.714L867.941 406.596L870.788 403.738C870.963 403.561 871.055 403.318 871.039 403.07C871.023 402.822 870.901 402.592 870.704 402.44Z" fill="#EEEA81" fill-opacity="0.5"/>
<path fill-rule="evenodd" clip-rule="evenodd" d="M1002.73 642.7C1002.45 640.486 1000.43 638.92 998.214 639.201C996.001 639.482 994.434 641.505 994.716 643.719L994.836 644.667C994.838 644.683 994.84 644.698 994.841 644.714L995.963 653.546L1004.79 652.423C1004.81 652.421 1004.83 652.418 1004.84 652.416L1005.79 652.296C1008 652.014 1009.57 649.992 1009.29 647.778C1009.01 645.564 1006.98 643.998 1004.77 644.279L1003.82 644.4C1003.35 644.46 1002.91 644.124 1002.85 643.649L1002.73 642.7ZM1005.11 654.131C1005.09 654.134 1005.08 654.136 1005.06 654.138L995.323 655.375C995.094 655.404 994.864 655.342 994.682 655.201C994.682 655.2 994.682 655.201 994.682 655.201C994.682 655.2 994.681 655.2 994.681 655.2C994.499 655.059 994.38 654.852 994.351 654.623L993.114 644.886C993.112 644.87 993.111 644.855 993.109 644.839L992.995 643.937C992.593 640.773 994.832 637.882 997.996 637.48C1001.16 637.078 1004.05 639.317 1004.45 642.481L1004.46 642.57L1004.55 642.558C1007.72 642.156 1010.61 644.395 1011.01 647.559C1011.41 650.723 1009.17 653.614 1006.01 654.016L1005.11 654.131Z" fill="#F1AAB5" fill-opacity="0.25"/>
</svg>
