<svg width="26" height="26" viewBox="0 0 26 26" fill="none" xmlns="http://www.w3.org/2000/svg">
<path d="M7.64896 25.9212C9.02523 25.9814 9.45177 26 12.9928 26C16.5239 26 16.9758 26 18.3545 25.9207C19.433 25.8989 20.5001 25.6947 21.5103 25.3167C23.2543 24.64 24.6338 23.2635 25.3128 21.5225C25.6926 20.5126 25.8977 19.4455 25.9192 18.3669C25.9798 17.0018 26 16.5405 26 13.0231C26 9.50566 26 9.05445 25.9192 7.67343C25.9026 6.58109 25.697 5.49984 25.3114 4.47749C24.6341 2.7359 23.2546 1.35896 21.5103 0.6833C20.4986 0.303174 19.4294 0.0984105 18.3487 0.0778443L18.3248 0.0768102C16.9795 0.0185215 16.552 0 12.9928 0C9.47174 0 9.01843 0 7.63976 0.0778443C6.56185 0.0982342 5.49543 0.303019 4.48684 0.6833C2.74198 1.3582 1.36227 2.73541 0.68573 4.47749C0.306949 5.48515 0.102409 6.54976 0.080844 7.62586L0.0807895 7.62707C0.0187564 9.00279 0 9.41876 0 12.974C0 16.4929 0 16.9456 0.080844 18.3266C0.101947 19.4041 0.306494 20.4702 0.68573 21.4793C1.363 23.219 2.74048 24.5951 4.48251 25.272C5.48935 25.6658 6.55612 25.8852 7.63687 25.9207L7.64896 25.9212Z" fill="white"/>
<path d="M16.5235 13.006H14.3976C14.3976 16.4025 14.3976 20.5833 14.3976 20.5833H11.2475C11.2475 20.5833 11.2475 16.4431 11.2475 13.006H9.75V10.328H11.2475V8.59576C11.2475 7.35516 11.837 5.41663 14.4266 5.41663L16.7609 5.42557V8.0252C16.7609 8.0252 15.3424 8.0252 15.0666 8.0252C14.7908 8.0252 14.3987 8.1631 14.3987 8.75471V10.3285H16.7988L16.5235 13.006Z" fill="#3952AA"/>
</svg>
