<svg width="61" height="26" viewBox="0 0 61 26" fill="none" xmlns="http://www.w3.org/2000/svg">
<path d="M7.64896 25.9212C9.02523 25.9814 9.45177 26 12.9928 26C16.5239 26 16.9758 26 18.3545 25.9207C19.433 25.8989 20.5001 25.6947 21.5103 25.3167C23.2543 24.64 24.6338 23.2635 25.3128 21.5225C25.6926 20.5126 25.8977 19.4455 25.9192 18.3669C25.9798 17.0018 26 16.5405 26 13.0231C26 9.50566 26 9.05445 25.9192 7.67343C25.9026 6.58109 25.697 5.49984 25.3114 4.47749C24.6341 2.7359 23.2546 1.35896 21.5103 0.6833C20.4986 0.303174 19.4294 0.0984105 18.3487 0.0778443L18.3248 0.0768102C16.9795 0.0185215 16.552 0 12.9928 0C9.47174 0 9.01843 0 7.63976 0.0778443C6.56185 0.0982342 5.49543 0.303019 4.48684 0.6833C2.74198 1.3582 1.36227 2.73541 0.68573 4.47749C0.306949 5.48515 0.102409 6.54976 0.080844 7.62586L0.0807895 7.62707C0.0187564 9.00279 0 9.41876 0 12.974C0 16.4929 0 16.9456 0.080844 18.3266C0.101947 19.4041 0.306494 20.4702 0.68573 21.4793C1.363 23.219 2.74048 24.5951 4.48251 25.272C5.48935 25.6658 6.55612 25.8852 7.63687 25.9207L7.64896 25.9212Z" fill="white"/>
<path d="M16.5235 13.006H14.3976C14.3976 16.4025 14.3976 20.5833 14.3976 20.5833H11.2475C11.2475 20.5833 11.2475 16.4431 11.2475 13.006H9.75V10.328H11.2475V8.59576C11.2475 7.35516 11.837 5.41663 14.4266 5.41663L16.7609 5.42557V8.0252C16.7609 8.0252 15.3424 8.0252 15.0666 8.0252C14.7908 8.0252 14.3987 8.1631 14.3987 8.75471V10.3285H16.7988L16.5235 13.006Z" fill="#3952AA"/>
<path d="M50.3698 22.75C47.8087 22.75 47.5068 22.7365 46.5074 22.6928C45.728 22.6672 44.9587 22.509 44.2326 22.225C42.9763 21.7368 41.9829 20.7445 41.4945 19.4899C41.221 18.7622 41.0735 17.9934 41.0583 17.2163C41 16.2203 41 15.8939 41 13.3563C41 10.7916 41.0135 10.4922 41.0583 9.49942C41.0739 8.72339 41.2214 7.95564 41.4945 7.22896C41.9824 5.97265 42.9774 4.97947 44.2357 4.49276C44.9631 4.21852 45.7321 4.07084 46.5094 4.05614C47.5037 4 47.8306 4 50.3698 4C52.9517 4 53.2484 4.01351 54.2322 4.05614C55.0116 4.07097 55.7827 4.21864 56.5122 4.49276C57.7702 4.98002 58.765 5.97301 59.2534 7.22896C59.5315 7.96623 59.6798 8.74598 59.6917 9.53372C59.75 10.5296 59.75 10.855 59.75 13.3916C59.75 15.9282 59.7354 16.2609 59.6917 17.2454C59.6762 18.0232 59.5283 18.7927 59.2544 19.521C58.7648 20.7766 57.7699 21.7692 56.5122 22.2572C55.7837 22.5298 55.0142 22.6771 54.2364 22.6928C53.2422 22.75 52.9163 22.75 50.3698 22.75ZM50.3344 5.64567C47.7879 5.64567 47.5235 5.65814 46.5292 5.70284C45.9358 5.71069 45.3481 5.82005 44.7916 6.02616C43.97 6.34012 43.3198 6.98673 43.002 7.80593C42.794 8.36762 42.6845 8.96089 42.6782 9.55971C42.6231 10.5671 42.6231 10.8311 42.6231 13.3563C42.6231 15.8513 42.6324 16.1538 42.6782 17.1549C42.6876 17.7477 42.797 18.3347 43.002 18.8911C43.3202 19.7097 43.9703 20.3558 44.7916 20.6698C45.3477 20.8773 45.9356 20.9867 46.5292 20.9931C47.537 21.0513 47.8025 21.0513 50.3344 21.0513C52.8882 21.0513 53.1526 21.0388 54.1385 20.9931C54.7324 20.9859 55.3205 20.8765 55.8772 20.6698C56.6939 20.3531 57.3398 19.7085 57.6574 18.8931C57.865 18.331 57.9745 17.7374 57.9812 17.1383H57.9926C58.0374 16.1445 58.0374 15.8794 58.0374 13.3397C58.0374 10.7999 58.026 10.5328 57.9812 9.53996C57.9719 8.94787 57.8624 8.3616 57.6574 7.80593C57.3405 6.98941 56.6945 6.34353 55.8772 6.02616C55.3206 5.81901 54.7324 5.70962 54.1385 5.70284C53.1318 5.64567 52.8684 5.64567 50.3344 5.64567ZM50.3698 18.1581C48.4229 18.1594 46.6671 16.9894 45.9211 15.1937C45.1751 13.3981 45.5859 11.3305 46.9619 9.95524C48.338 8.58 50.4082 8.16799 52.2071 8.91136C54.006 9.65472 55.1792 11.407 55.1796 13.3511C55.1768 16.0031 53.0257 18.153 50.3698 18.1581ZM50.3698 10.2302C48.6449 10.2302 47.2465 11.6266 47.2465 13.349C47.2465 15.0715 48.6449 16.4678 50.3698 16.4678C52.0947 16.4678 53.4931 15.0715 53.4931 13.349C53.4891 11.6282 52.0931 10.2342 50.3698 10.2302ZM55.367 9.48903C54.748 9.48673 54.2477 8.98439 54.2489 8.36628C54.25 7.74816 54.7522 7.24768 55.3712 7.24768C55.9902 7.24768 56.4923 7.74815 56.4935 8.36627C56.4938 8.66448 56.3751 8.95054 56.1637 9.16122C55.9524 9.37189 55.6657 9.48985 55.367 9.48903Z" fill="white"/>
</svg>
