<svg width="56" height="49" viewBox="0 0 56 49" fill="none" xmlns="http://www.w3.org/2000/svg">
<path fill-rule="evenodd" clip-rule="evenodd" d="M28 4.08331C18.97 4.08331 11.6667 10.4737 11.6667 18.375C11.6667 29.0937 28 44.9166 28 44.9166C28 44.9166 44.3334 29.0937 44.3334 18.375C44.3334 10.4737 37.03 4.08331 28 4.08331V4.08331ZM28 23.4791C24.78 23.4791 22.1667 21.1925 22.1667 18.375C22.1667 15.5575 24.78 13.2708 28 13.2708C31.22 13.2708 33.8334 15.5575 33.8334 18.375C33.8334 21.1925 31.22 23.4791 28 23.4791V23.4791Z" fill="#0077DF"/>
<mask id="mask0_410_4517" style="mask-type:alpha" maskUnits="userSpaceOnUse" x="11" y="4" width="34" height="41">
<path fill-rule="evenodd" clip-rule="evenodd" d="M28 4.08331C18.97 4.08331 11.6667 10.4737 11.6667 18.375C11.6667 29.0937 28 44.9166 28 44.9166C28 44.9166 44.3334 29.0937 44.3334 18.375C44.3334 10.4737 37.03 4.08331 28 4.08331V4.08331ZM28 23.4791C24.78 23.4791 22.1667 21.1925 22.1667 18.375C22.1667 15.5575 24.78 13.2708 28 13.2708C31.22 13.2708 33.8334 15.5575 33.8334 18.375C33.8334 21.1925 31.22 23.4791 28 23.4791V23.4791Z" fill="white"/>
</mask>
<g mask="url(#mask0_410_4517)">
<rect width="56" height="49" fill="#0077DF"/>
</g>
</svg>
