<svg width="483" height="127" viewBox="0 0 483 127" fill="none" xmlns="http://www.w3.org/2000/svg">
<path d="M23.4025 63.4923C23.4025 71.9102 24.6685 79.476 27.1653 86.1899C29.662 92.9038 33.1434 98.5614 37.5391 103.196C41.9348 107.831 47.1393 111.376 53.1175 113.829C59.0956 116.283 65.6013 117.51 72.5992 117.51C76.7839 117.51 80.8279 116.692 84.6961 115.056C88.5643 113.42 92.1864 111.273 95.492 108.649C98.7975 106.025 101.787 103.026 104.424 99.72C107.061 96.4142 109.207 93.0743 110.895 89.6662L119.334 95.1192C116.873 99.1748 113.989 103.06 110.648 106.809C107.308 110.524 103.439 113.829 99.0437 116.726C94.648 119.623 89.6896 121.907 84.1686 123.576C78.6476 125.246 72.4585 126.133 65.6364 126.133C55.7549 126.133 46.8228 124.462 38.7699 121.123C30.7169 117.783 23.8246 113.284 18.0926 107.559C12.3606 101.867 7.89453 95.2214 4.76479 87.5873C1.63505 79.9873 0.0526123 71.9442 0.0526123 63.4582C0.0526123 57.8349 0.755873 52.3139 2.19766 46.9632C3.63945 41.6126 5.71429 36.5685 8.42204 31.8653C11.1298 27.1622 14.4705 22.8681 18.3739 18.9488C22.2772 15.0296 26.7081 11.6555 31.6664 8.86089C36.5896 6.03219 42.0051 3.85109 47.8426 2.31746C53.7153 0.78383 59.9395 0 66.5858 0C73.2321 0 78.7532 0.85205 84.1335 2.59016C89.4787 4.32828 94.3666 6.61171 98.7623 9.44041C103.158 12.2691 107.062 15.5748 110.508 19.3237C113.954 23.0385 116.873 26.9577 119.334 31.0133L110.648 36.8412C105.69 27.0941 100.134 19.9373 93.9447 15.4386C87.7907 10.9059 80.6873 8.65641 72.7047 8.65641C65.8123 8.65641 59.4121 9.91759 53.434 12.4736C47.4558 15.0297 42.2513 18.6421 37.7852 23.3793C33.3192 28.1165 29.8378 33.842 27.2707 40.6241C24.7388 47.3721 23.4729 55.0062 23.4729 63.4923H23.4025Z" fill="#0BBAAD"/>
<path d="M145.497 106.945C146.799 106.945 148.065 107.218 149.26 107.729C150.456 108.24 151.511 108.922 152.39 109.774C153.269 110.626 154.008 111.648 154.5 112.807C154.992 114 155.274 115.227 155.274 116.488C155.274 117.885 155.027 119.146 154.5 120.305C154.008 121.463 153.304 122.486 152.39 123.338C151.476 124.19 150.456 124.905 149.26 125.383C148.065 125.86 146.799 126.098 145.497 126.098C144.126 126.098 142.825 125.86 141.629 125.383C140.434 124.905 139.379 124.224 138.5 123.338C137.62 122.452 136.882 121.429 136.39 120.305C135.897 119.18 135.616 117.885 135.616 116.488C135.616 115.227 135.862 114 136.39 112.807C136.917 111.614 137.585 110.626 138.5 109.774C139.379 108.922 140.434 108.24 141.629 107.729C142.825 107.218 144.126 106.945 145.497 106.945Z" fill="#0BBAAD"/>
<path d="M263.795 2.72635V10.5309H201.094V53.6429H243.082V61.4475H201.094V115.465H263.795V123.27H181.085V2.65833H263.795V2.72635Z" fill="#0BBAAD"/>
<path d="M290.802 106.945C292.103 106.945 293.369 107.218 294.564 107.729C295.76 108.24 296.815 108.922 297.694 109.774C298.573 110.626 299.312 111.648 299.804 112.807C300.296 114 300.578 115.227 300.578 116.488C300.578 117.885 300.331 119.146 299.804 120.305C299.312 121.463 298.608 122.486 297.694 123.338C296.78 124.19 295.76 124.905 294.564 125.383C293.369 125.86 292.103 126.098 290.802 126.098C289.43 126.098 288.129 125.86 286.933 125.383C285.738 124.905 284.683 124.224 283.804 123.338C282.925 122.452 282.186 121.429 281.694 120.305C281.201 119.18 280.92 117.885 280.92 116.488C280.92 115.227 281.166 114 281.694 112.807C282.221 111.614 282.889 110.626 283.804 109.774C284.683 108.922 285.738 108.24 286.933 107.729C288.129 107.218 289.43 106.945 290.802 106.945Z" fill="#0BBAAD"/>
<path d="M419.895 2.72632V10.5309H376.852V123.304H356.843V10.5309H313.8V2.72632H419.93H419.895Z" fill="#0BBAAD"/>
<path d="M426.787 106.945C428.088 106.945 429.354 107.218 430.55 107.729C431.745 108.24 432.8 108.922 433.68 109.774C434.559 110.626 435.297 111.648 435.79 112.807C436.282 114 436.563 115.227 436.563 116.488C436.563 117.885 436.317 119.146 435.79 120.305C435.297 121.463 434.594 122.486 433.68 123.338C432.765 124.19 431.745 124.905 430.55 125.383C429.354 125.86 428.088 126.098 426.787 126.098C425.416 126.098 424.115 125.86 422.919 125.383C421.723 124.905 420.668 124.224 419.789 123.338C418.91 122.452 418.171 121.429 417.679 120.305C417.187 119.18 416.906 117.885 416.906 116.488C416.906 115.227 417.152 114 417.679 112.807C418.207 111.614 418.875 110.626 419.789 109.774C420.668 108.922 421.723 108.24 422.919 107.729C424.115 107.218 425.416 106.945 426.787 106.945Z" fill="#0BBAAD"/>
<path d="M462.41 2.72632H482.419V123.338H462.41V2.72632Z" fill="#0BBAAD"/>
</svg>
