<svg width="56" height="49" viewBox="0 0 56 49" fill="none" xmlns="http://www.w3.org/2000/svg">
<path fill-rule="evenodd" clip-rule="evenodd" d="M28 4.08337C18.97 4.08337 11.6667 10.4738 11.6667 18.375C11.6667 29.0938 28 44.9167 28 44.9167C28 44.9167 44.3334 29.0938 44.3334 18.375C44.3334 10.4738 37.03 4.08337 28 4.08337ZM28 23.4792C24.78 23.4792 22.1667 21.1925 22.1667 18.375C22.1667 15.5575 24.78 13.2709 28 13.2709C31.22 13.2709 33.8334 15.5575 33.8334 18.375C33.8334 21.1925 31.22 23.4792 28 23.4792Z" fill="#C2D1D9"/>
<mask id="mask0_50_6071" style="mask-type:alpha" maskUnits="userSpaceOnUse" x="11" y="4" width="34" height="41">
<path fill-rule="evenodd" clip-rule="evenodd" d="M28 4.08337C18.97 4.08337 11.6667 10.4738 11.6667 18.375C11.6667 29.0938 28 44.9167 28 44.9167C28 44.9167 44.3334 29.0938 44.3334 18.375C44.3334 10.4738 37.03 4.08337 28 4.08337ZM28 23.4792C24.78 23.4792 22.1667 21.1925 22.1667 18.375C22.1667 15.5575 24.78 13.2709 28 13.2709C31.22 13.2709 33.8334 15.5575 33.8334 18.375C33.8334 21.1925 31.22 23.4792 28 23.4792Z" fill="white"/>
</mask>
<g mask="url(#mask0_50_6071)">
<rect width="56" height="49" fill="#FAFAFA"/>
</g>
</svg>
