<svg width="43" height="35" viewBox="0 0 43 35" fill="none" xmlns="http://www.w3.org/2000/svg">
<path fill-rule="evenodd" clip-rule="evenodd" d="M36.9444 0H5.83333C2.62122 0 0.0194438 2.61984 0.0194438 5.83333L0 29.165C0 32.3794 2.62056 35 5.83333 35H36.9444C40.1572 35 42.7778 32.3794 42.7778 29.1667V5.83333C42.7778 2.62056 40.1572 0 36.9444 0ZM7.91005 11.1795C7.437 10.8945 7.28457 10.28 7.5696 9.8069L8.54443 8.189C8.82945 7.71595 9.444 7.56352 9.91705 7.84855L21.3319 14.7263L33.2097 7.56964C33.6828 7.28461 34.2973 7.43704 34.5824 7.91009L35.5588 9.53074C35.8432 10.0027 35.6922 10.6158 35.2211 10.9017L21.4082 19.2851L21.3961 19.3052L7.91005 11.1795Z" fill="#0077DF"/>
</svg>
