<svg width="21" height="21" viewBox="0 0 21 21" fill="none" xmlns="http://www.w3.org/2000/svg">
<path d="M10.3698 19.75C7.80872 19.75 7.5068 19.7365 6.50736 19.6928C5.72797 19.6672 4.95867 19.509 4.23258 19.225C2.97631 18.7368 1.98293 17.7445 1.49452 16.4899C1.22103 15.7622 1.07352 14.9934 1.0583 14.2163C1 13.2203 1 12.8939 1 10.3563C1 7.79162 1.01353 7.49222 1.0583 6.49942C1.07385 5.72339 1.22136 4.95564 1.49452 4.22896C1.9824 2.97265 2.97739 1.97947 4.2357 1.49276C4.96305 1.21852 5.73211 1.07084 6.50944 1.05614C7.50368 1 7.83058 1 10.3698 1C12.9517 1 13.2484 1.01351 14.2322 1.05614C15.0116 1.07097 15.7827 1.21864 16.5122 1.49276C17.7702 1.98002 18.765 2.97301 19.2534 4.22896C19.5315 4.96623 19.6798 5.74598 19.6917 6.53372C19.75 7.52965 19.75 7.85504 19.75 10.3916C19.75 12.9282 19.7354 13.2609 19.6917 14.2454C19.6762 15.0232 19.5283 15.7927 19.2544 16.521C18.7648 17.7766 17.7699 18.7692 16.5122 19.2572C15.7837 19.5298 15.0142 19.6771 14.2364 19.6928C13.2422 19.75 12.9163 19.75 10.3698 19.75ZM10.3344 2.64567C7.7879 2.64567 7.52346 2.65814 6.52922 2.70284C5.93578 2.71069 5.34808 2.82005 4.79164 3.02616C3.96997 3.34012 3.31978 3.98673 3.00201 4.80593C2.79402 5.36762 2.68449 5.96089 2.67823 6.55971C2.62306 7.56707 2.62306 7.83113 2.62306 10.3563C2.62306 12.8513 2.63243 13.1538 2.67823 14.1549C2.68755 14.7477 2.79702 15.3347 3.00201 15.8911C3.32025 16.7097 3.97032 17.3558 4.79164 17.6698C5.3477 17.8773 5.93564 17.9867 6.52922 17.9931C7.53699 18.0513 7.80247 18.0513 10.3344 18.0513C12.8882 18.0513 13.1526 18.0388 14.1385 17.9931C14.7324 17.9859 15.3205 17.8765 15.8772 17.6698C16.6939 17.3531 17.3398 16.7085 17.6574 15.8931C17.865 15.331 17.9745 14.7374 17.9812 14.1383H17.9926C18.0374 13.1445 18.0374 12.8794 18.0374 10.3397C18.0374 7.79994 18.026 7.53277 17.9812 6.53996C17.9719 5.94787 17.8624 5.3616 17.6574 4.80593C17.3405 3.98941 16.6945 3.34353 15.8772 3.02616C15.3206 2.81901 14.7324 2.70962 14.1385 2.70284C13.1318 2.64567 12.8684 2.64567 10.3344 2.64567ZM10.3698 15.1581C8.42295 15.1594 6.66708 13.9894 5.92108 12.1937C5.17508 10.3981 5.5859 8.33047 6.96193 6.95524C8.33796 5.58 10.4082 5.16799 12.2071 5.91136C14.006 6.65472 15.1792 8.40705 15.1796 10.3511C15.1768 13.0031 13.0257 15.153 10.3698 15.1581ZM10.3698 7.23025C8.64486 7.23025 7.24653 8.62656 7.24653 10.349C7.24653 12.0715 8.64486 13.4678 10.3698 13.4678C12.0947 13.4678 13.4931 12.0715 13.4931 10.349C13.4891 8.62822 12.0931 7.23425 10.3698 7.23025ZM15.367 6.48903C14.748 6.48673 14.2477 5.98439 14.2489 5.36628C14.25 4.74816 14.7522 4.24768 15.3712 4.24768C15.9902 4.24768 16.4923 4.74815 16.4935 5.36627C16.4938 5.66449 16.3751 5.95054 16.1637 6.16122C15.9524 6.37189 15.6657 6.48985 15.367 6.48903Z" fill="white"/>
</svg>
