<svg width="72" height="67" viewBox="0 0 72 67" fill="none" xmlns="http://www.w3.org/2000/svg">
<path d="M32.9858 39.123C32.9858 39.123 26.3317 39.751 25.5869 38.3637C25.113 37.4826 32.8504 37.9513 30.4132 35.0737C29.8619 34.4175 24.8712 36.9483 24.1942 36.4141C22.4823 35.0549 29.8038 33.9676 29.0978 32.5241C28.3337 30.9588 21.8343 35.2705 21.0316 34.1457C19.4744 31.9617 33.1696 29.4684 31.951 27.6781C30.7323 25.8878 24.8326 30.7713 23.846 29.6559C23.1207 28.8311 28.4401 26.1221 27.8018 25.5597C26.409 24.3224 20.2192 28.9623 18.749 30.3964C15.0158 34.052 9.30942 35.533 10.1218 32.2804C10.9343 29.0279 31.5931 23.1602 30.0359 20.1794C29.0881 18.3704 5.52777 33.6302 3.47736 29.3934C1.62039 25.541 31.0998 19.9076 29.2235 16.552C27.6664 13.7681 3.10015 27.7906 2.10396 24.0881C1.31088 21.1261 30.6356 14.3961 30.5002 12.3058C30.3164 9.53133 3.88357 20.6669 3.01311 18.9234C0.430756 13.7212 40.23 9.58756 36.1195 6.20378C34.601 4.95712 3.71915 15.2022 2.41347 13.8243C-1.99685 9.16576 35.5972 7.57227 29.9973 3.08244C28.4594 1.85453 15.0834 8.26592 14.5031 5.97883C14.0776 4.301 17.8882 4.01978 17.0274 2.81999C15.0931 0.111091 11.3018 4.76028 11.0117 7.40357" stroke="#AFE26C" stroke-width="2.18" stroke-miterlimit="10"/>
<path d="M32.9858 39.123C32.9858 39.123 26.3317 39.751 25.5869 38.3637C25.113 37.4826 32.8504 37.9513 30.4132 35.0737C29.8619 34.4175 24.8712 36.9483 24.1942 36.4141C22.4823 35.0549 29.8038 33.9676 29.0978 32.5241C28.3337 30.9588 21.8343 35.2705 21.0316 34.1457C19.4744 31.9617 33.1696 29.4684 31.951 27.6781C30.7323 25.8878 24.8326 30.7713 23.846 29.6559C23.1207 28.8311 28.4401 26.1221 27.8018 25.5597C26.409 24.3224 20.2192 28.9623 18.749 30.3964C15.0158 34.052 9.30942 35.533 10.1218 32.2804C10.9343 29.0279 31.5931 23.1602 30.0359 20.1794C29.0881 18.3704 5.52777 33.6302 3.47736 29.3934C1.62039 25.541 31.0998 19.9076 29.2235 16.552C27.6664 13.7681 3.10015 27.7906 2.10396 24.0881C1.31088 21.1261 30.6356 14.3961 30.5002 12.3058C30.3164 9.53133 3.88357 20.6669 3.01311 18.9234C0.430756 13.7212 40.23 9.58756 36.1195 6.20378C34.601 4.95712 3.71915 15.2022 2.41347 13.8243C-1.99685 9.16576 35.5972 7.57227 29.9973 3.08244C28.4594 1.85453 15.0834 8.26592 14.5031 5.97883C14.0776 4.301 17.8882 4.01978 17.0274 2.81999C15.0931 0.111091 11.3018 4.76028 11.0117 7.40357" stroke="#0071D4" stroke-width="0.14" stroke-miterlimit="10"/>
<path d="M3.9126 66.2494H70.193C70.193 66.2494 72.1274 65.0965 70.193 64.2341C68.2587 63.3718 62.0204 64.2341 62.0204 64.2341C62.0204 64.2341 62.3203 62.9406 60.8308 61.4971C59.3414 60.0536 55.7821 62.5095 55.7821 62.5095L50.5787 64.2341C50.6658 64.2904 45.2109 65.2277 42.4061 64.8059C40.5492 64.5247 39.8818 63.6436 39.8818 63.6436L40.0269 53.4267C40.0269 53.4267 44.0407 52.1331 42.706 49.2461C41.3713 46.3685 40.4814 45.0657 40.4814 45.0657V37.4358C40.4814 37.4358 41.0714 35.1299 40.0365 34.4081C39.0017 33.6864 38.5181 33.1146 37.4929 34.4081C36.4677 35.7016 36.6224 35.5611 36.1678 37.5763C35.7229 39.5916 35.723 43.6222 36.0228 44.0533C36.3226 44.4845 36.5837 45.778 37.4929 46.4998C38.402 47.2215 38.7018 49.3774 36.7675 48.3744C34.8331 47.3621 32.8988 45.2062 32.8988 45.2062C32.8988 45.2062 32.1541 42.9004 31.1192 40.8851C30.0747 38.8699 30.5292 38.4387 28.5949 38.2887C26.6605 38.1481 25.7707 38.7199 25.6257 39.5822C25.4806 40.4446 25.9255 41.1663 26.6702 41.7381C27.4149 42.3099 27.8598 43.1816 29.0495 44.044C30.2391 44.9063 30.9838 46.9216 29.4944 46.4904C28.0049 46.0592 26.0802 45.7687 26.0802 45.7687C26.0802 45.7687 24.0008 44.6158 24.0008 44.1846C24.0008 43.7534 22.5114 45.1969 22.8112 46.1998C23.111 47.2121 23.2561 49.4618 24.5908 49.9211C25.9255 50.3804 29.0495 50.8115 29.0495 50.8115C29.0495 50.8115 31.1289 51.9644 32.1734 51.9644C33.218 51.9644 33.6629 52.255 33.3631 55.1326C33.0632 58.0103 32.9182 60.1755 32.9182 60.1755C32.9182 60.1755 32.6183 62.9125 29.9489 63.0531C27.2699 63.1937 24.1556 62.9125 22.3663 62.7625C20.577 62.6125 19.4744 63.3249 17.4627 63.4843C15.2285 63.653 11.6597 63.5686 7.39443 63.7654C6.31119 63.8123 5.93399 63.2687 4.9378 63.6155C4.28979 63.8405 3.94161 64.5153 3.94161 65.1808V66.2119L3.9126 66.2494Z" fill="#FBA86B" stroke="#746900" stroke-width="0.14" stroke-miterlimit="10"/>
<path d="M42.3674 49.2462C42.8123 50.9428 43.6634 54.1766 45.8106 53.1736C47.6288 52.3206 40.2977 42.2912 42.4545 44.4752C53.1804 55.3108 57.3006 54.4296 46.7971 45.1313C45.8686 44.3064 44.8434 43.3223 43.9826 42.4318C40.23 38.5325 41.2165 35.6736 42.7156 36.8734C43.7505 37.7076 53.3932 50.0429 57.0975 49.293C59.9313 48.7213 55.5113 46.2092 49.6406 40.6415C46.3812 37.5483 40.3944 33.1241 43.1508 31.5306C44.7757 30.5933 59.7475 50.3616 61.3917 44.8969C61.9043 43.1816 49.3698 36.8359 51.2944 34.2864C52.9386 32.1118 60.7921 42.5349 62.4266 41.1101C65.0476 38.8324 52.7162 33.5177 55.1825 31.9805C57.5714 30.2089 64.0901 40.2103 65.6279 36.9296C66.8756 34.2769 46.8551 25.1098 49.9791 22.2697C51.0043 21.3324 64.9316 33.9208 66.3436 33.3303C69.1098 32.1586 54.815 23.8538 55.8015 22.4384C56.846 20.9387 58.9931 23.0008 63.7516 26.7689C66.0535 28.5874 69.487 31.2307 69.1678 28.9529C68.8487 26.6658 59.5541 22.0073 60.5696 21.1637C61.9817 19.9826 72.4465 27.2189 70.0963 24.1069C67.746 20.9856 65.4152 20.3294 63.8774 19.6358C63.8774 19.6358 56.7106 17.5362 58.0356 17.2175C60.7534 16.552 69.0421 20.4138 70.0963 18.3704C70.783 17.0394 58.3548 15.4553 59.3026 14.293C59.7959 13.6837 68.3554 16.1208 68.6262 15.0054C68.8196 14.2086 60.4633 12.7464 61.0049 11.7622C61.3047 11.2279 66.1889 12.737 65.6667 12.3902C60.8888 9.22203 66.6145 11.1248 65.773 11.8372" stroke="#4DD0C3" stroke-width="2.18" stroke-miterlimit="10"/>
<path d="M38.373 49.1149C38.373 49.1149 33.5662 43.3222 33.189 40.7165C33.131 40.2947 35.2588 40.4915 35.2491 40.0603C35.2491 39.4323 31.8253 38.4575 31.7866 37.8388C31.7479 37.2202 35.6263 37.9419 35.7037 37.3514C35.8391 36.2828 29.6491 35.0362 31.0322 33.7895C31.98 32.9272 35.2297 34.9144 36.932 34.0333C38.6342 33.1522 30.2875 31.3338 30.713 29.7122C31.1773 27.9406 36.2646 31.4181 38.4117 31.6712C39.9689 31.8493 39.9592 29.3935 38.8373 28.9435C36.7966 28.1187 30.2972 26.4034 31.3997 23.8726C32.2412 21.9323 47.0293 31.3525 49.776 31.8118C52.2036 32.2242 53.2869 28.3999 50.7335 27.8843C48.8475 27.5 24.3394 19.6827 30.626 16.1114C32.3089 15.1554 44.5049 25.3535 46.6134 23.5351C48.8282 21.6229 39.9205 19.5795 40.6556 17.9955C41.4583 16.252 50.3854 20.8356 51.2655 19.1952C52.0296 17.7611 40.4235 15.2491 38.6825 14.5742C36.2259 13.6181 31.4577 11.8184 33.6242 9.73754C36.0035 7.45044 37.3478 12.7839 48.6831 15.2116C52.5615 16.0364 54.902 20.8356 56.0723 18.839C56.8557 17.4987 53.5383 15.9802 53.8768 15.071C54.2927 13.9837 54.3411 15.1085 56.4979 14.1711C57.2426 13.8524 59.1189 10.2999 57.2232 9.76566C56.3915 9.53133 55.6274 11.5747 54.5055 12.2402C50.8786 14.4055 48.5187 12.5589 46.7004 11.7059C45.3851 11.0873 38.4988 8.10659 38.818 7.11302C39.2242 5.81949 42.0483 6.09131 43.1993 6.89742C47.6773 10.0281 50.1339 12.4839 53.0547 10.9748C54.873 10.0281 55.7919 4.61034 52.1359 5.12587C51.1494 5.26647 52.6099 8.77208 51.3912 8.85644C50.1726 8.9408 46.0137 5.61327 46.0137 5.61327" stroke="#F1AAB5" stroke-width="2.18" stroke-miterlimit="10"/>
<path d="M33.1986 52.4238C33.1986 52.4238 31.3706 54.5703 30.8097 54.5984C30.0746 54.6266 30.1133 52.5738 28.9043 52.0302C28.2273 51.7302 28.2757 54.6078 27.5213 54.5984C26.4574 54.5984 26.6798 50.9803 25.6159 50.896C24.7648 50.8303 24.9292 53.7267 24.0781 53.6423C23.0626 53.5392 23.7203 50.4742 22.3179 50.1649C21.283 49.9399 21.0992 54.1298 19.1455 53.08C18.1107 52.5176 22.5306 47.006 21.5925 46.3124C20.3642 45.3938 16.0796 53.6798 15.3446 52.3582C14.0099 49.968 20.1514 44.269 21.3701 43.0411C22.6757 41.7194 26.2349 45.5063 27.5116 44.7564C29.9296 43.3317 22.3372 41.1477 22.6467 39.6667C22.8015 38.9262 25.8384 37.6139 26.0222 36.8828C26.2156 36.0861 25.4225 34.8207 24.5811 34.7926C20.606 34.6426 18.3235 46.4717 13.7487 47.4372C12.6848 47.6622 12.0562 47.2591 12.0368 46.2093C11.9982 44.4752 14.4644 42.7318 16.7663 40.201C17.8399 39.02 20.8478 35.6268 20.1127 34.6332C19.0488 33.2179 13.4586 41.6913 11.6499 41.6539C9.10628 41.5976 14.7062 37.0234 14.2516 36.3204C12.8106 34.1083 10.7602 40.1354 8.62271 38.645C7.78127 38.0638 10.7118 35.8705 9.99609 35.2238C8.35189 33.7521 7.67487 37.239 6.18542 36.6672C4.69597 36.0955 7.1139 34.3614 6.63031 33.9677C4.91841 32.5898 3.25488 34.9331 3.25488 35.6455" stroke="#EEEA81" stroke-width="2.18" stroke-miterlimit="10"/>
<path d="M42.3674 49.2462C42.8123 50.9428 43.6634 54.1766 45.8106 53.1736C47.6288 52.3206 40.2977 42.2912 42.4545 44.4752C53.1804 55.3108 57.3006 54.4296 46.7971 45.1313C45.8686 44.3064 44.8434 43.3223 43.9826 42.4318C40.23 38.5325 41.2165 35.6736 42.7156 36.8734C43.7505 37.7076 53.3932 50.0429 57.0975 49.293C59.9313 48.7213 55.5113 46.2092 49.6406 40.6415C46.3812 37.5483 40.3944 33.1241 43.1508 31.5306C44.7757 30.5933 59.7475 50.3616 61.3917 44.8969C61.9043 43.1816 49.3698 36.8359 51.2944 34.2864C52.9386 32.1118 60.7921 42.5349 62.4266 41.1101C65.0476 38.8324 52.7162 33.5177 55.1825 31.9805C57.5714 30.2089 64.0901 40.2103 65.6279 36.9296C66.8756 34.2769 46.8551 25.1098 49.9791 22.2697C51.0043 21.3324 64.9316 33.9208 66.3436 33.3303C69.1098 32.1586 54.815 23.8538 55.8015 22.4384C56.846 20.9387 58.9931 23.0008 63.7516 26.7689C66.0535 28.5874 69.487 31.2307 69.1678 28.9529C68.8487 26.6658 59.5541 22.0073 60.5696 21.1637C61.9817 19.9826 72.4465 27.2189 70.0963 24.1069C67.746 20.9856 65.4152 20.3294 63.8774 19.6358C63.8774 19.6358 56.7106 17.5362 58.0356 17.2175C60.7534 16.552 69.0421 20.4138 70.0963 18.3704C70.783 17.0394 58.3548 15.4553 59.3026 14.293C59.7959 13.6837 68.3554 16.1208 68.6262 15.0054C68.8196 14.2086 60.4633 12.7464 61.0049 11.7622C61.3047 11.2279 66.1889 12.737 65.6667 12.3902C60.8888 9.22203 66.6145 11.1248 65.773 11.8372" stroke="#0041E9" stroke-width="0.14" stroke-miterlimit="10"/>
<path d="M38.373 49.1149C38.373 49.1149 33.5662 43.3222 33.189 40.7165C33.131 40.2947 35.2588 40.4915 35.2491 40.0603C35.2491 39.4323 31.8253 38.4575 31.7866 37.8388C31.7479 37.2202 35.6263 37.9419 35.7037 37.3514C35.8391 36.2828 29.6491 35.0362 31.0322 33.7895C31.98 32.9272 35.2297 34.9144 36.932 34.0333C38.6342 33.1522 30.2875 31.3338 30.713 29.7122C31.1773 27.9406 36.2646 31.4181 38.4117 31.6712C39.9689 31.8493 39.9592 29.3935 38.8373 28.9435C36.7966 28.1187 30.2972 26.4034 31.3997 23.8726C32.2412 21.9323 47.0293 31.3525 49.776 31.8118C52.2036 32.2242 53.2869 28.3999 50.7335 27.8843C48.8475 27.5 24.3394 19.6827 30.626 16.1114C32.3089 15.1554 44.5049 25.3535 46.6134 23.5351C48.8282 21.6229 39.9205 19.5795 40.6556 17.9955C41.4583 16.252 50.3854 20.8356 51.2655 19.1952C52.0296 17.7611 40.4235 15.2491 38.6825 14.5742C36.2259 13.6181 31.4577 11.8184 33.6242 9.73754C36.0035 7.45044 37.3478 12.7839 48.6831 15.2116C52.5615 16.0364 54.902 20.8356 56.0723 18.839C56.8557 17.4987 53.5383 15.9802 53.8768 15.071C54.2927 13.9837 54.3411 15.1085 56.4979 14.1711C57.2426 13.8524 59.1189 10.2999 57.2232 9.76566C56.3915 9.53133 55.6274 11.5747 54.5055 12.2402C50.8786 14.4055 48.5187 12.5589 46.7004 11.7059C45.3851 11.0873 38.4988 8.10659 38.818 7.11302C39.2242 5.81949 42.0483 6.09131 43.1993 6.89742C47.6773 10.0281 50.1339 12.4839 53.0547 10.9748C54.873 10.0281 55.7919 4.61034 52.1359 5.12587C51.1494 5.26647 52.6099 8.77208 51.3912 8.85644C50.1726 8.9408 46.0137 5.61327 46.0137 5.61327" stroke="#0072FF" stroke-width="0.14" stroke-miterlimit="10"/>
<path d="M33.1986 52.4238C33.1986 52.4238 31.3706 54.5703 30.8097 54.5984C30.0746 54.6266 30.1133 52.5738 28.9043 52.0302C28.2273 51.7302 28.2757 54.6078 27.5213 54.5984C26.4574 54.5984 26.6798 50.9803 25.6159 50.896C24.7648 50.8303 24.9292 53.7267 24.0781 53.6423C23.0626 53.5392 23.7203 50.4742 22.3179 50.1649C21.283 49.9399 21.0992 54.1298 19.1455 53.08C18.1107 52.5176 22.5306 47.006 21.5925 46.3124C20.3642 45.3938 16.0796 53.6798 15.3446 52.3582C14.0099 49.968 20.1514 44.269 21.3701 43.0411C22.6757 41.7194 26.2349 45.5063 27.5116 44.7564C29.9296 43.3317 22.3372 41.1477 22.6467 39.6667C22.8015 38.9262 25.8384 37.6139 26.0222 36.8828C26.2156 36.0861 25.4225 34.8207 24.5811 34.7926C20.606 34.6426 18.3235 46.4717 13.7487 47.4372C12.6848 47.6622 12.0562 47.2591 12.0368 46.2093C11.9982 44.4752 14.4644 42.7318 16.7663 40.201C17.8399 39.02 20.8478 35.6268 20.1127 34.6332C19.0488 33.2179 13.4586 41.6913 11.6499 41.6539C9.10628 41.5976 14.7062 37.0234 14.2516 36.3204C12.8106 34.1083 10.7602 40.1354 8.62271 38.645C7.78127 38.0638 10.7118 35.8705 9.99609 35.2238C8.35189 33.7521 7.67487 37.239 6.18542 36.6672C4.69597 36.0955 7.1139 34.3614 6.63031 33.9677C4.91841 32.5898 3.25488 34.9331 3.25488 35.6455" stroke="#0089F4" stroke-width="0.14" stroke-miterlimit="10"/>
</svg>
